<svg width="55" height="55" viewBox="0 0 55 55" fill="none" xmlns="http://www.w3.org/2000/svg">
<path fill-rule="evenodd" clip-rule="evenodd" d="M5.4375 49.5625V5.4375H49.5625V49.5625H36.6298V34.8967H42.886L43.8245 27.6358H36.6298V22.9978C36.6298 20.8923 37.2133 19.4606 40.2271 19.4606H44.0711V12.9637C43.4034 12.8735 41.1235 12.6749 38.4646 12.6749C32.9181 12.6749 29.1223 16.0617 29.1223 22.2759V27.6298H22.854V34.8906H29.1283V49.5625H5.4375ZM3.4375 4.4375C3.4375 3.88521 3.88522 3.4375 4.4375 3.4375H50.5625C51.1148 3.4375 51.5625 3.88522 51.5625 4.4375V50.5625C51.5625 51.1148 51.1148 51.5625 50.5625 51.5625H4.4375C3.88521 51.5625 3.4375 51.1148 3.4375 50.5625V4.4375Z" fill="#A1A3A7"/>
</svg>
