<svg width="830" height="325" viewBox="0 0 830 325" fill="none" xmlns="http://www.w3.org/2000/svg" xmlns:xlink="http://www.w3.org/1999/xlink">
<g clip-path="url(#clip0_698_370)">
<rect width="830" height="325" fill="#0D1117"/>
<mask id="mask0_698_370" style="mask-type:alpha" maskUnits="userSpaceOnUse" x="0" y="0" width="830" height="325">
<path d="M0 1.99999C0 0.895423 0.895431 0 2 0H830V325H2C0.895429 325 0 324.105 0 323V1.99999Z" fill="white"/>
</mask>
<g mask="url(#mask0_698_370)">
<rect opacity="0.2" width="830" height="324.773" fill="url(#paint0_linear_698_370)"/>
</g>
<g opacity="0.6" filter="url(#filter0_f_698_370)">
<path d="M669.071 309.673L612.787 214.087L712.96 210.379L784.747 255.812L797.311 333.786L669.071 309.673Z" fill="url(#paint1_linear_698_370)"/>
</g>
<path opacity="0.7" d="M619.697 208.744L717.303 199.021L771.735 272.081" stroke="url(#paint2_linear_698_370)"/>
<rect opacity="0.7" width="49.5434" height="49.5434" transform="matrix(-0.99851 -0.0545659 -0.0545659 0.99851 739.094 174.234)" fill="url(#paint3_linear_698_370)"/>
<g filter="url(#filter1_b_698_370)">
<path d="M712.876 197.807L676.045 285.921L770.989 273.861L807.826 185.73L712.876 197.807Z" fill="url(#paint4_linear_698_370)" fill-opacity="0.2"/>
<path d="M807.032 186.335L713.225 198.266L676.84 285.316L770.639 273.402L807.032 186.335Z" stroke="url(#paint5_linear_698_370)"/>
</g>
<g filter="url(#filter2_b_698_370)">
<path d="M712.873 197.805L655.683 121.624L618.845 209.755L676.043 285.92L712.873 197.805Z" fill="url(#paint6_linear_698_370)" fill-opacity="0.2"/>
<path d="M675.918 284.921L712.301 197.876L655.807 122.623L619.417 209.684L675.918 284.921Z" stroke="url(#paint7_linear_698_370)"/>
</g>
<g filter="url(#filter3_b_698_370)">
<path d="M807.823 185.738L750.626 109.574L655.682 121.634L712.873 197.815L807.823 185.738Z" fill="url(#paint8_linear_698_370)" fill-opacity="0.2"/>
<path d="M713.098 197.282L806.907 185.351L750.401 110.106L656.599 122.021L713.098 197.282Z" stroke="url(#paint9_linear_698_370)"/>
</g>
<g opacity="0.4">
<path opacity="0.6" d="M637.756 129.45L603.232 211.265L657.223 283.852" stroke="url(#paint10_linear_698_370)"/>
<path opacity="0.6" d="M636.424 119.182L596.61 212.069L649.859 283.707" stroke="url(#paint11_linear_698_370)"/>
</g>
<g opacity="0.4">
<path opacity="0.6" d="M806.213 168.391L754.4 96.2721L666.035 109.055" stroke="url(#paint12_linear_698_370)"/>
<path opacity="0.6" d="M815.671 172.597L757.169 90.1909L670 102.836" stroke="url(#paint13_linear_698_370)"/>
</g>
<path d="M27.6666 27.6055C28.2902 28.3247 29.8278 28.9326 30.8614 28.9326C31.895 28.9326 32.7407 28.7614 32.7407 28.3076C32.7407 27.8538 31.9206 27.6825 30.0926 27.3657C28.1706 27.0318 26.6757 26.1584 26.0521 25.268C25.6934 24.7628 25.4542 23.8209 25.4542 22.999C25.4542 20.6358 27.7862 18.6836 30.8614 18.6836C33.5265 18.6836 35.0897 19.2658 36.559 20.5416L33.9366 23.3415C33.1678 22.8877 32.2025 22.5709 31.2458 22.5452C29.4178 22.4938 29.2725 23.3415 30.4001 23.487C33.5778 23.9237 35.3033 24.1121 36.4138 25.5591C37.0374 26.3554 37.2765 27.2458 37.2765 28.162C37.2765 30.8334 34.7054 33.0082 30.8528 33.0082C28.7344 33.0082 26.4024 32.0236 24.9844 30.6708L27.6666 27.6055Z" fill="#F4F3F0"/>
<path d="M51.9075 25.8494C51.9075 29.8223 48.7298 33.0075 44.7662 33.0075C40.8027 33.0075 37.625 29.8223 37.625 25.8494C37.625 21.8766 40.8027 18.6914 44.7662 18.6914C48.7298 18.6914 51.9075 21.868 51.9075 25.8494ZM42.1438 25.8494C42.1438 27.4163 43.3739 28.6664 44.7662 28.6664C46.2099 28.6664 47.3887 27.4163 47.3887 25.8494C47.3887 24.2826 46.2099 23.0325 44.7662 23.0325C43.3653 23.0239 42.1438 24.2826 42.1438 25.8494Z" fill="#F4F3F0"/>
<path d="M57.2046 32.3557H52.6602V15H57.2046V32.3557Z" fill="#F4F3F0"/>
<path d="M63.0288 15H58.4844V19.3325H63.0288V15Z" fill="#F4F3F0"/>
<path d="M63.0288 20.6172H58.4844V32.3475H63.0288V20.6172Z" fill="#F4F3F0"/>
<path d="M73.5464 15H78.0908V32.3557H73.5464V31.371C72.9655 32.2358 71.838 33.0064 70.0868 33.0064C66.5504 33.0064 63.7656 29.9925 63.7656 25.797C63.7656 21.8241 66.166 18.7075 70.1381 18.7075C71.7013 18.7075 73.051 19.4267 73.5549 20.1802V15H73.5464ZM68.3101 25.8655C68.3101 27.4324 69.2924 28.9051 70.9325 28.9051C72.2565 28.9051 73.5549 27.9889 73.5549 25.8655C73.5549 23.8191 72.4701 22.8088 70.9325 22.8088C69.506 22.8088 68.3101 23.8705 68.3101 25.8655Z" fill="#F4F3F0"/>
<path d="M53.6109 38.5916C54.1661 38.5916 54.5249 38.3433 54.5249 37.9751C54.5249 37.6241 53.9099 37.5299 53.5853 37.4699C52.7738 37.3158 52.4321 37.0932 52.4321 36.6223C52.4321 36.0743 52.9275 35.6719 53.5938 35.6719C54.1576 35.6719 54.4908 35.8517 54.7983 36.1599L54.4993 36.4339C54.3284 36.2627 54.0722 36.0743 53.6365 36.0743C53.1155 36.0743 52.8336 36.2627 52.8336 36.6052C52.8336 36.8706 53.2351 36.999 53.6109 37.0675C54.2259 37.1703 54.9264 37.273 54.9264 38.0265C54.9264 38.4974 54.4566 39.0026 53.6109 39.0026C53.0471 39.0026 52.62 38.7543 52.3125 38.3775L52.6286 38.1121C52.7567 38.2577 53.0386 38.5916 53.6109 38.5916Z" fill="#F4F3F0"/>
<path d="M58.9667 37.333C58.9667 38.2577 58.2321 38.994 57.3095 38.994C56.387 38.994 55.6523 38.2577 55.6523 37.333C55.6523 36.4082 56.387 35.6719 57.3095 35.6719C58.2321 35.6719 58.9667 36.4082 58.9667 37.333ZM56.0538 37.333C56.0538 38.0265 56.6176 38.5916 57.3095 38.5916C58.0014 38.5916 58.5652 38.0265 58.5652 37.333C58.5652 36.6394 58.0014 36.0743 57.3095 36.0743C56.6176 36.0743 56.0538 36.6394 56.0538 37.333Z" fill="#F4F3F0"/>
<path d="M60.3528 35.6113V35.8168H60.9422V36.2192H60.3528V38.8393H59.9513V36.2192H59.6523V35.8168H59.9513V35.5685C59.9513 34.8407 60.2759 34.6523 60.7286 34.6523C60.8568 34.6523 60.9764 34.6695 61.1216 34.7037L61.0191 35.0805C60.6091 35.0034 60.3528 35.012 60.3528 35.6113Z" fill="#F4F3F0"/>
<path d="M62.7709 38.9916C62.2498 38.9916 62.1046 38.632 62.1046 38.0327V36.2175H61.7031V35.815H62.1046V34.8047H62.5061V35.815H63.1724V36.2175H62.5061V38.144C62.5061 38.5121 62.6855 38.6663 63.1297 38.4779L63.2236 38.8718C63.1638 38.9231 62.9332 38.9916 62.7709 38.9916Z" fill="#F4F3F0"/>
<path d="M68.4646 35.8164L67.3797 38.8389H66.9783L66.1753 36.4072L65.3723 38.8389H64.9708L63.8945 35.8164H64.3302L65.1759 38.2138L65.9703 35.8164H66.4059L67.1918 38.2138L68.0375 35.8164H68.4646Z" fill="#F4F3F0"/>
<path d="M71.7198 38.8407H71.3183V38.4468C71.1902 38.7122 70.6777 38.9948 70.131 38.9948C69.4476 38.9948 68.918 38.5838 68.918 37.9331C68.918 37.4365 69.2853 36.9484 70.1993 36.9484C70.6606 36.9484 71.0877 37.0083 71.2671 37.0255C71.2244 36.6487 71.1475 36.0494 70.2933 36.0494C69.8234 36.0494 69.4561 36.2377 69.2853 36.3576L69.0803 36.0408C69.4305 35.7668 69.9259 35.6641 70.2335 35.6641C70.8741 35.6641 71.2329 35.8781 71.4379 36.2035C71.66 36.546 71.7027 37.034 71.7027 37.6334V38.8407H71.7198ZM71.2671 37.9502C71.3098 37.8474 71.3183 37.719 71.3098 37.4193C71.3098 37.4108 70.6349 37.3508 70.131 37.3508C69.6782 37.3508 69.328 37.5392 69.3195 37.9245C69.328 38.2927 69.5672 38.5924 70.1224 38.5924C70.8058 38.5924 71.1475 38.2242 71.2671 37.9502Z" fill="#F4F3F0"/>
<path d="M74.5226 35.8431L74.3005 36.2199C74.2322 36.1599 74.1468 36.0743 73.8478 36.0743C73.3438 36.0743 73.1046 36.5623 73.1046 36.9905V38.8399H72.7031V35.8174H73.1046V36.0657C73.2242 35.8945 73.6171 35.6719 73.9503 35.6719C74.1468 35.6719 74.3176 35.6976 74.5226 35.8431Z" fill="#F4F3F0"/>
<path d="M76.5456 38.994C75.606 38.994 74.9141 38.2577 74.9141 37.333C74.9141 36.4082 75.6231 35.6719 76.52 35.6719C77.3828 35.6719 78.0747 36.2969 78.0747 37.2216C78.0747 37.3672 78.0661 37.4528 78.032 37.5556H75.3155C75.3839 38.0522 75.7939 38.5916 76.5371 38.5916C77.1179 38.5916 77.4084 38.3176 77.5707 38.0864L77.9295 38.2748C77.6476 38.6687 77.2205 38.994 76.5456 38.994ZM76.5371 36.0743C75.8195 36.0743 75.3668 36.6137 75.3241 37.1531H77.6732C77.6476 36.5538 77.229 36.0743 76.5371 36.0743Z" fill="#F4F3F0"/>
<rect x="78.8203" y="26.8555" width="5.467" height="5.47985" fill="url(#paint14_linear_698_370)"/>
<mask id="path-31-outside-1_698_370" maskUnits="userSpaceOnUse" x="25" y="168" width="527" height="34" fill="black">
<rect fill="white" x="25" y="168" width="527" height="34"/>
<path d="M46.645 178.291H34.438V181.762H44.773V188.08H34.438V191.629H46.645V199H27.067V170.92H46.645V178.291ZM68.6565 186.013V170.92H76.0275V199H69.8265L58.2825 183.907V199H50.9115V170.92H57.1125L68.6565 186.013ZM94.3521 182.581H106.442V194.554C103.426 198.22 99.3961 200.053 94.3521 200.053C91.7001 200.105 89.1911 199.455 86.8251 198.103C84.4591 196.725 82.5871 194.853 81.2091 192.487C79.8571 190.121 79.2071 187.612 79.2591 184.96C79.2071 182.308 79.8571 179.812 81.2091 177.472C82.5871 175.106 84.4591 173.234 86.8251 171.856C89.1911 170.478 91.7001 169.815 94.3521 169.867C98.8761 169.867 102.412 171.336 104.96 174.274L99.6171 179.305C98.3691 177.927 96.5751 177.238 94.2351 177.238C91.9471 177.238 90.1011 177.953 88.6971 179.383C87.3191 180.813 86.6301 182.672 86.6301 184.96C86.6301 187.248 87.3191 189.107 88.6971 190.537C90.1271 191.915 91.9731 192.604 94.2351 192.604C96.2371 192.604 97.8491 192.123 99.0711 191.161V188.821L94.3521 188.86V182.581ZM117.126 199H109.755V170.92H117.126V199ZM139.23 186.013V170.92H146.601V199H140.4L128.856 183.907V199H121.485V170.92H127.686L139.23 186.013ZM170.424 178.291H158.217V181.762H168.552V188.08H158.217V191.629H170.424V199H150.846V170.92H170.424V178.291ZM194.152 178.291H181.945V181.762H192.28V188.08H181.945V191.629H194.152V199H174.574V170.92H194.152V178.291ZM221.467 199H213.277L208.324 190.303H205.789V199H198.418V170.92H209.572C212.328 170.92 214.655 171.856 216.553 173.728C218.477 175.6 219.439 177.862 219.439 180.514C219.439 182.1 219.062 183.582 218.308 184.96C217.554 186.312 216.514 187.43 215.188 188.314L221.467 199ZM205.789 178.291V183.985H208.285C209.507 183.985 210.443 183.712 211.093 183.166C211.743 182.62 212.068 181.866 212.068 180.904C212.068 179.162 210.924 178.291 208.636 178.291H205.789ZM231.46 199H224.089V170.92H231.46V199ZM253.564 186.013V170.92H260.935V199H254.734L243.19 183.907V199H235.819V170.92H242.02L253.564 186.013ZM279.259 182.581H291.349V194.554C288.333 198.22 284.303 200.053 279.259 200.053C276.607 200.105 274.098 199.455 271.732 198.103C269.366 196.725 267.494 194.853 266.116 192.487C264.764 190.121 264.114 187.612 264.166 184.96C264.114 182.308 264.764 179.812 266.116 177.472C267.494 175.106 269.366 173.234 271.732 171.856C274.098 170.478 276.607 169.815 279.259 169.867C283.783 169.867 287.319 171.336 289.867 174.274L284.524 179.305C283.276 177.927 281.482 177.238 279.142 177.238C276.854 177.238 275.008 177.953 273.604 179.383C272.226 180.813 271.537 182.672 271.537 184.96C271.537 187.248 272.226 189.107 273.604 190.537C275.034 191.915 276.88 192.604 279.142 192.604C281.144 192.604 282.756 192.123 283.978 191.161V188.821L279.259 188.86V182.581ZM331.994 184.96C332.072 188.73 330.694 192.032 327.86 194.866C325.052 197.7 321.75 199.078 317.954 199H307.229V170.92H317.954C320.424 170.868 322.751 171.492 324.935 172.792C327.119 174.066 328.848 175.795 330.122 177.979C331.422 180.163 332.046 182.49 331.994 184.96ZM314.6 178.291V191.629H317.798C319.774 191.629 321.412 191.018 322.712 189.796C323.986 188.548 324.623 186.936 324.623 184.96C324.623 182.958 323.986 181.359 322.712 180.163C321.412 178.915 319.774 178.291 317.798 178.291H314.6ZM364.392 184.96C364.444 187.612 363.781 190.121 362.403 192.487C361.025 194.853 359.153 196.725 356.787 198.103C354.447 199.455 351.951 200.105 349.299 200.053C346.647 200.105 344.138 199.455 341.772 198.103C339.406 196.725 337.534 194.853 336.156 192.487C334.804 190.121 334.154 187.612 334.206 184.96C334.154 182.308 334.804 179.812 336.156 177.472C337.534 175.106 339.406 173.234 341.772 171.856C344.138 170.478 346.647 169.815 349.299 169.867C353.355 169.789 356.904 171.271 359.946 174.313C362.988 177.355 364.47 180.904 364.392 184.96ZM343.839 179.461C342.331 180.969 341.577 182.802 341.577 184.96C341.577 187.118 342.331 188.964 343.839 190.498C345.347 192.006 347.167 192.76 349.299 192.76C351.431 192.76 353.251 192.006 354.759 190.498C356.267 188.964 357.021 187.118 357.021 184.96C357.021 182.802 356.267 180.969 354.759 179.461C353.251 177.927 351.431 177.16 349.299 177.16C347.167 177.16 345.347 177.927 343.839 179.461ZM385.379 186.013V170.92H392.75V199H386.549L375.005 183.907V199H367.634V170.92H373.835L385.379 186.013ZM416.574 178.291H404.367V181.762H414.702V188.08H404.367V191.629H416.574V199H396.996V170.92H416.574V178.291ZM456.534 199H448.344L443.391 190.303H440.856V199H433.485V170.92H444.639C447.395 170.92 449.722 171.856 451.62 173.728C453.544 175.6 454.506 177.862 454.506 180.514C454.506 182.1 454.129 183.582 453.375 184.96C452.621 186.312 451.581 187.43 450.255 188.314L456.534 199ZM440.856 178.291V183.985H443.352C444.574 183.985 445.51 183.712 446.16 183.166C446.81 182.62 447.135 181.866 447.135 180.904C447.135 179.162 445.991 178.291 443.703 178.291H440.856ZM466.527 199H459.156V170.92H466.527V199ZM484.847 182.581H496.937V194.554C493.921 198.22 489.891 200.053 484.847 200.053C482.195 200.105 479.686 199.455 477.32 198.103C474.954 196.725 473.082 194.853 471.704 192.487C470.352 190.121 469.702 187.612 469.754 184.96C469.702 182.308 470.352 179.812 471.704 177.472C473.082 175.106 474.954 173.234 477.32 171.856C479.686 170.478 482.195 169.815 484.847 169.867C489.371 169.867 492.907 171.336 495.455 174.274L490.112 179.305C488.864 177.927 487.07 177.238 484.73 177.238C482.442 177.238 480.596 177.953 479.192 179.383C477.814 180.813 477.125 182.672 477.125 184.96C477.125 187.248 477.814 189.107 479.192 190.537C480.622 191.915 482.468 192.604 484.73 192.604C486.732 192.604 488.344 192.123 489.566 191.161V188.821L484.847 188.86V182.581ZM524.274 199H516.903V188.626H507.387V199H500.016V170.92H507.387V181.255H516.903V170.92H524.274V199ZM549.687 178.291H542.199V199H534.828V178.291H527.301V170.92H549.687V178.291Z"/>
</mask>
<path d="M46.645 178.291V179.791H48.145V178.291H46.645ZM34.438 178.291V176.791H32.938V178.291H34.438ZM34.438 181.762H32.938V183.262H34.438V181.762ZM44.773 181.762H46.273V180.262H44.773V181.762ZM44.773 188.08V189.58H46.273V188.08H44.773ZM34.438 188.08V186.58H32.938V188.08H34.438ZM34.438 191.629H32.938V193.129H34.438V191.629ZM46.645 191.629H48.145V190.129H46.645V191.629ZM46.645 199V200.5H48.145V199H46.645ZM27.067 199H25.567V200.5H27.067V199ZM27.067 170.92V169.42H25.567V170.92H27.067ZM46.645 170.92H48.145V169.42H46.645V170.92ZM46.645 176.791H34.438V179.791H46.645V176.791ZM32.938 178.291V181.762H35.938V178.291H32.938ZM34.438 183.262H44.773V180.262H34.438V183.262ZM43.273 181.762V188.08H46.273V181.762H43.273ZM44.773 186.58H34.438V189.58H44.773V186.58ZM32.938 188.08V191.629H35.938V188.08H32.938ZM34.438 193.129H46.645V190.129H34.438V193.129ZM45.145 191.629V199H48.145V191.629H45.145ZM46.645 197.5H27.067V200.5H46.645V197.5ZM28.567 199V170.92H25.567V199H28.567ZM27.067 172.42H46.645V169.42H27.067V172.42ZM45.145 170.92V178.291H48.145V170.92H45.145ZM68.6565 186.013L67.4651 186.924L70.1565 190.443V186.013H68.6565ZM68.6565 170.92V169.42H67.1565V170.92H68.6565ZM76.0275 170.92H77.5275V169.42H76.0275V170.92ZM76.0275 199V200.5H77.5275V199H76.0275ZM69.8265 199L68.6351 199.911L69.0854 200.5H69.8265V199ZM58.2825 183.907L59.474 182.996L56.7825 179.477V183.907H58.2825ZM58.2825 199V200.5H59.7825V199H58.2825ZM50.9115 199H49.4115V200.5H50.9115V199ZM50.9115 170.92V169.42H49.4115V170.92H50.9115ZM57.1125 170.92L58.304 170.009L57.8537 169.42H57.1125V170.92ZM70.1565 186.013V170.92H67.1565V186.013H70.1565ZM68.6565 172.42H76.0275V169.42H68.6565V172.42ZM74.5275 170.92V199H77.5275V170.92H74.5275ZM76.0275 197.5H69.8265V200.5H76.0275V197.5ZM71.018 198.089L59.474 182.996L57.0911 184.818L68.6351 199.911L71.018 198.089ZM56.7825 183.907V199H59.7825V183.907H56.7825ZM58.2825 197.5H50.9115V200.5H58.2825V197.5ZM52.4115 199V170.92H49.4115V199H52.4115ZM50.9115 172.42H57.1125V169.42H50.9115V172.42ZM55.9211 171.831L67.4651 186.924L69.848 185.102L58.304 170.009L55.9211 171.831ZM94.3521 182.581V181.081H92.8521V182.581H94.3521ZM106.442 182.581H107.942V181.081H106.442V182.581ZM106.442 194.554L107.6 195.507L107.942 195.092V194.554H106.442ZM94.3521 200.053V198.553H94.3373L94.3226 198.553L94.3521 200.053ZM86.8251 198.103L86.0701 199.399L86.0808 199.405L86.8251 198.103ZM81.2091 192.487L79.9066 193.231L79.9129 193.242L81.2091 192.487ZM79.2591 184.96L80.7588 184.989L80.7593 184.96L80.7588 184.931L79.2591 184.96ZM81.2091 177.472L79.9129 176.717L79.9103 176.722L81.2091 177.472ZM86.8251 171.856L86.0701 170.56V170.56L86.8251 171.856ZM94.3521 169.867L94.3226 171.367L94.3373 171.367H94.3521V169.867ZM104.96 174.274L105.988 175.366L107.037 174.379L106.093 173.291L104.96 174.274ZM99.6171 179.305L98.5052 180.312L99.5319 181.446L100.645 180.397L99.6171 179.305ZM88.6971 179.383L87.6267 178.332L87.6169 178.342L88.6971 179.383ZM88.6971 190.537L87.6169 191.578L87.6362 191.598L87.6562 191.617L88.6971 190.537ZM99.0711 191.161L99.9989 192.34L100.571 191.889V191.161H99.0711ZM99.0711 188.821H100.571V187.309L99.0587 187.321L99.0711 188.821ZM94.3521 188.86H92.8521V190.372L94.3644 190.36L94.3521 188.86ZM94.3521 184.081H106.442V181.081H94.3521V184.081ZM104.942 182.581V194.554H107.942V182.581H104.942ZM105.284 193.601C102.572 196.897 98.9797 198.553 94.3521 198.553V201.553C99.8124 201.553 104.28 199.543 107.6 195.507L105.284 193.601ZM94.3226 198.553C91.9493 198.6 89.7067 198.022 87.5693 196.801L86.0808 199.405C88.6754 200.888 91.4508 201.61 94.3815 201.553L94.3226 198.553ZM87.58 196.807C85.4382 195.559 83.7527 193.874 82.5052 191.732L79.9129 193.242C81.4214 195.832 83.4799 197.891 86.0701 199.399L87.58 196.807ZM82.5114 191.743C81.29 189.605 80.7122 187.363 80.7588 184.989L77.7593 184.931C77.7019 187.861 78.4241 190.637 79.9067 193.231L82.5114 191.743ZM80.7588 184.931C80.7122 182.557 81.2899 180.33 82.5079 178.222L79.9103 176.722C78.4242 179.294 77.7019 182.059 77.7593 184.989L80.7588 184.931ZM82.5052 178.227C83.7527 176.085 85.4382 174.4 87.58 173.152L86.0701 170.56C83.4799 172.068 81.4214 174.127 79.9129 176.717L82.5052 178.227ZM87.58 173.152C89.7162 171.908 91.955 171.32 94.3226 171.367L94.3815 168.367C91.4451 168.31 88.6659 169.048 86.0701 170.56L87.58 173.152ZM94.3521 171.367C98.5198 171.367 101.611 172.702 103.827 175.257L106.093 173.291C103.213 169.97 99.2324 168.367 94.3521 168.367V171.367ZM103.932 173.182L98.5888 178.213L100.645 180.397L105.988 175.366L103.932 173.182ZM100.729 178.298C99.1263 176.529 96.8813 175.738 94.2351 175.738V178.738C96.2688 178.738 97.6118 179.325 98.5052 180.312L100.729 178.298ZM94.2351 175.738C91.6066 175.738 89.3535 176.573 87.6267 178.332L89.7674 180.434C90.8486 179.333 92.2875 178.738 94.2351 178.738V175.738ZM87.6169 178.342C85.9284 180.094 85.1301 182.347 85.1301 184.96H88.1301C88.1301 182.997 88.7097 181.532 89.7772 180.424L87.6169 178.342ZM85.1301 184.96C85.1301 187.573 85.9284 189.826 87.6169 191.578L89.7772 189.496C88.7097 188.388 88.1301 186.923 88.1301 184.96H85.1301ZM87.6562 191.617C89.4051 193.302 91.6432 194.104 94.2351 194.104V191.104C92.3029 191.104 90.849 190.528 89.7379 189.457L87.6562 191.617ZM94.2351 194.104C96.4759 194.104 98.4447 193.563 99.9989 192.34L98.1432 189.982C97.2534 190.683 95.9982 191.104 94.2351 191.104V194.104ZM100.571 191.161V188.821H97.5711V191.161H100.571ZM99.0587 187.321L94.3397 187.36L94.3644 190.36L99.0835 190.321L99.0587 187.321ZM95.8521 188.86V182.581H92.8521V188.86H95.8521ZM117.126 199V200.5H118.626V199H117.126ZM109.755 199H108.255V200.5H109.755V199ZM109.755 170.92V169.42H108.255V170.92H109.755ZM117.126 170.92H118.626V169.42H117.126V170.92ZM117.126 197.5H109.755V200.5H117.126V197.5ZM111.255 199V170.92H108.255V199H111.255ZM109.755 172.42H117.126V169.42H109.755V172.42ZM115.626 170.92V199H118.626V170.92H115.626ZM139.23 186.013L138.038 186.924L140.73 190.443V186.013H139.23ZM139.23 170.92V169.42H137.73V170.92H139.23ZM146.601 170.92H148.101V169.42H146.601V170.92ZM146.601 199V200.5H148.101V199H146.601ZM140.4 199L139.208 199.911L139.659 200.5H140.4V199ZM128.856 183.907L130.047 182.996L127.356 179.477V183.907H128.856ZM128.856 199V200.5H130.356V199H128.856ZM121.485 199H119.985V200.5H121.485V199ZM121.485 170.92V169.42H119.985V170.92H121.485ZM127.686 170.92L128.877 170.009L128.427 169.42H127.686V170.92ZM140.73 186.013V170.92H137.73V186.013H140.73ZM139.23 172.42H146.601V169.42H139.23V172.42ZM145.101 170.92V199H148.101V170.92H145.101ZM146.601 197.5H140.4V200.5H146.601V197.5ZM141.591 198.089L130.047 182.996L127.664 184.818L139.208 199.911L141.591 198.089ZM127.356 183.907V199H130.356V183.907H127.356ZM128.856 197.5H121.485V200.5H128.856V197.5ZM122.985 199V170.92H119.985V199H122.985ZM121.485 172.42H127.686V169.42H121.485V172.42ZM126.494 171.831L138.038 186.924L140.421 185.102L128.877 170.009L126.494 171.831ZM170.424 178.291V179.791H171.924V178.291H170.424ZM158.217 178.291V176.791H156.717V178.291H158.217ZM158.217 181.762H156.717V183.262H158.217V181.762ZM168.552 181.762H170.052V180.262H168.552V181.762ZM168.552 188.08V189.58H170.052V188.08H168.552ZM158.217 188.08V186.58H156.717V188.08H158.217ZM158.217 191.629H156.717V193.129H158.217V191.629ZM170.424 191.629H171.924V190.129H170.424V191.629ZM170.424 199V200.5H171.924V199H170.424ZM150.846 199H149.346V200.5H150.846V199ZM150.846 170.92V169.42H149.346V170.92H150.846ZM170.424 170.92H171.924V169.42H170.424V170.92ZM170.424 176.791H158.217V179.791H170.424V176.791ZM156.717 178.291V181.762H159.717V178.291H156.717ZM158.217 183.262H168.552V180.262H158.217V183.262ZM167.052 181.762V188.08H170.052V181.762H167.052ZM168.552 186.58H158.217V189.58H168.552V186.58ZM156.717 188.08V191.629H159.717V188.08H156.717ZM158.217 193.129H170.424V190.129H158.217V193.129ZM168.924 191.629V199H171.924V191.629H168.924ZM170.424 197.5H150.846V200.5H170.424V197.5ZM152.346 199V170.92H149.346V199H152.346ZM150.846 172.42H170.424V169.42H150.846V172.42ZM168.924 170.92V178.291H171.924V170.92H168.924ZM194.152 178.291V179.791H195.652V178.291H194.152ZM181.945 178.291V176.791H180.445V178.291H181.945ZM181.945 181.762H180.445V183.262H181.945V181.762ZM192.28 181.762H193.78V180.262H192.28V181.762ZM192.28 188.08V189.58H193.78V188.08H192.28ZM181.945 188.08V186.58H180.445V188.08H181.945ZM181.945 191.629H180.445V193.129H181.945V191.629ZM194.152 191.629H195.652V190.129H194.152V191.629ZM194.152 199V200.5H195.652V199H194.152ZM174.574 199H173.074V200.5H174.574V199ZM174.574 170.92V169.42H173.074V170.92H174.574ZM194.152 170.92H195.652V169.42H194.152V170.92ZM194.152 176.791H181.945V179.791H194.152V176.791ZM180.445 178.291V181.762H183.445V178.291H180.445ZM181.945 183.262H192.28V180.262H181.945V183.262ZM190.78 181.762V188.08H193.78V181.762H190.78ZM192.28 186.58H181.945V189.58H192.28V186.58ZM180.445 188.08V191.629H183.445V188.08H180.445ZM181.945 193.129H194.152V190.129H181.945V193.129ZM192.652 191.629V199H195.652V191.629H192.652ZM194.152 197.5H174.574V200.5H194.152V197.5ZM176.074 199V170.92H173.074V199H176.074ZM174.574 172.42H194.152V169.42H174.574V172.42ZM192.652 170.92V178.291H195.652V170.92H192.652ZM221.467 199V200.5H224.089L222.761 198.24L221.467 199ZM213.277 199L211.974 199.742L212.405 200.5H213.277V199ZM208.324 190.303L209.628 189.561L209.196 188.803H208.324V190.303ZM205.789 190.303V188.803H204.289V190.303H205.789ZM205.789 199V200.5H207.289V199H205.789ZM198.418 199H196.918V200.5H198.418V199ZM198.418 170.92V169.42H196.918V170.92H198.418ZM216.553 173.728L215.5 174.796L215.507 174.803L216.553 173.728ZM218.308 184.96L219.618 185.691L219.624 185.68L218.308 184.96ZM215.188 188.314L214.356 187.066L213.177 187.852L213.895 189.074L215.188 188.314ZM205.789 178.291V176.791H204.289V178.291H205.789ZM205.789 183.985H204.289V185.485H205.789V183.985ZM221.467 197.5H213.277V200.5H221.467V197.5ZM214.581 198.258L209.628 189.561L207.021 191.045L211.974 199.742L214.581 198.258ZM208.324 188.803H205.789V191.803H208.324V188.803ZM204.289 190.303V199H207.289V190.303H204.289ZM205.789 197.5H198.418V200.5H205.789V197.5ZM199.918 199V170.92H196.918V199H199.918ZM198.418 172.42H209.572V169.42H198.418V172.42ZM209.572 172.42C211.949 172.42 213.893 173.211 215.5 174.796L217.607 172.66C215.418 170.501 212.708 169.42 209.572 169.42V172.42ZM215.507 174.803C217.145 176.397 217.939 178.273 217.939 180.514H220.939C220.939 177.451 219.81 174.803 217.599 172.653L215.507 174.803ZM217.939 180.514C217.939 181.851 217.624 183.085 216.992 184.24L219.624 185.68C220.5 184.079 220.939 182.349 220.939 180.514H217.939ZM216.998 184.229C216.364 185.367 215.49 186.31 214.356 187.066L216.02 189.562C217.539 188.55 218.745 187.257 219.618 185.691L216.998 184.229ZM213.895 189.074L220.174 199.76L222.761 198.24L216.482 187.554L213.895 189.074ZM204.289 178.291V183.985H207.289V178.291H204.289ZM205.789 185.485H208.285V182.485H205.789V185.485ZM208.285 185.485C209.708 185.485 211.041 185.169 212.058 184.315L210.129 182.017C209.846 182.255 209.306 182.485 208.285 182.485V185.485ZM212.058 184.315C213.095 183.444 213.568 182.243 213.568 180.904H210.568C210.568 181.489 210.392 181.796 210.129 182.017L212.058 184.315ZM213.568 180.904C213.568 179.675 213.144 178.531 212.119 177.751C211.172 177.029 209.928 176.791 208.636 176.791V179.791C209.633 179.791 210.105 179.988 210.302 180.138C210.421 180.229 210.568 180.391 210.568 180.904H213.568ZM208.636 176.791H205.789V179.791H208.636V176.791ZM231.46 199V200.5H232.96V199H231.46ZM224.089 199H222.589V200.5H224.089V199ZM224.089 170.92V169.42H222.589V170.92H224.089ZM231.46 170.92H232.96V169.42H231.46V170.92ZM231.46 197.5H224.089V200.5H231.46V197.5ZM225.589 199V170.92H222.589V199H225.589ZM224.089 172.42H231.46V169.42H224.089V172.42ZM229.96 170.92V199H232.96V170.92H229.96ZM253.564 186.013L252.372 186.924L255.064 190.443V186.013H253.564ZM253.564 170.92V169.42H252.064V170.92H253.564ZM260.935 170.92H262.435V169.42H260.935V170.92ZM260.935 199V200.5H262.435V199H260.935ZM254.734 199L253.542 199.911L253.993 200.5H254.734V199ZM243.19 183.907L244.381 182.996L241.69 179.477V183.907H243.19ZM243.19 199V200.5H244.69V199H243.19ZM235.819 199H234.319V200.5H235.819V199ZM235.819 170.92V169.42H234.319V170.92H235.819ZM242.02 170.92L243.211 170.009L242.761 169.42H242.02V170.92ZM255.064 186.013V170.92H252.064V186.013H255.064ZM253.564 172.42H260.935V169.42H253.564V172.42ZM259.435 170.92V199H262.435V170.92H259.435ZM260.935 197.5H254.734V200.5H260.935V197.5ZM255.925 198.089L244.381 182.996L241.998 184.818L253.542 199.911L255.925 198.089ZM241.69 183.907V199H244.69V183.907H241.69ZM243.19 197.5H235.819V200.5H243.19V197.5ZM237.319 199V170.92H234.319V199H237.319ZM235.819 172.42H242.02V169.42H235.819V172.42ZM240.828 171.831L252.372 186.924L254.755 185.102L243.211 170.009L240.828 171.831ZM279.259 182.581V181.081H277.759V182.581H279.259ZM291.349 182.581H292.849V181.081H291.349V182.581ZM291.349 194.554L292.508 195.507L292.849 195.092V194.554H291.349ZM279.259 200.053V198.553H279.245L279.23 198.553L279.259 200.053ZM271.732 198.103L270.977 199.399L270.988 199.405L271.732 198.103ZM266.116 192.487L264.814 193.231L264.82 193.242L266.116 192.487ZM264.166 184.96L265.666 184.989L265.667 184.96L265.666 184.931L264.166 184.96ZM266.116 177.472L264.82 176.717L264.817 176.722L266.116 177.472ZM271.732 171.856L270.977 170.56V170.56L271.732 171.856ZM279.259 169.867L279.23 171.367L279.245 171.367H279.259V169.867ZM289.867 174.274L290.896 175.366L291.944 174.379L291 173.291L289.867 174.274ZM284.524 179.305L283.412 180.312L284.439 181.446L285.553 180.397L284.524 179.305ZM273.604 179.383L272.534 178.332L272.524 178.342L273.604 179.383ZM273.604 190.537L272.524 191.578L272.543 191.598L272.563 191.617L273.604 190.537ZM283.978 191.161L284.906 192.34L285.478 191.889V191.161H283.978ZM283.978 188.821H285.478V187.309L283.966 187.321L283.978 188.821ZM279.259 188.86H277.759V190.372L279.272 190.36L279.259 188.86ZM279.259 184.081H291.349V181.081H279.259V184.081ZM289.849 182.581V194.554H292.849V182.581H289.849ZM290.191 193.601C287.48 196.897 283.887 198.553 279.259 198.553V201.553C284.72 201.553 289.187 199.543 292.508 195.507L290.191 193.601ZM279.23 198.553C276.857 198.6 274.614 198.022 272.476 196.801L270.988 199.405C273.583 200.888 276.358 201.61 279.289 201.553L279.23 198.553ZM272.487 196.807C270.345 195.559 268.66 193.874 267.412 191.732L264.82 193.242C266.329 195.832 268.387 197.891 270.977 199.399L272.487 196.807ZM267.419 191.743C266.197 189.605 265.619 187.363 265.666 184.989L262.667 184.931C262.609 187.861 263.331 190.637 264.814 193.231L267.419 191.743ZM265.666 184.931C265.619 182.557 266.197 180.33 267.415 178.222L264.817 176.722C263.331 179.294 262.609 182.059 262.667 184.989L265.666 184.931ZM267.412 178.227C268.66 176.085 270.345 174.4 272.487 173.152L270.977 170.56C268.387 172.068 266.329 174.127 264.82 176.717L267.412 178.227ZM272.487 173.152C274.623 171.908 276.862 171.32 279.23 171.367L279.289 168.367C276.352 168.31 273.573 169.048 270.977 170.56L272.487 173.152ZM279.259 171.367C283.427 171.367 286.519 172.702 288.734 175.257L291 173.291C288.12 169.97 284.14 168.367 279.259 168.367V171.367ZM288.839 173.182L283.496 178.213L285.553 180.397L290.896 175.366L288.839 173.182ZM285.636 178.298C284.034 176.529 281.789 175.738 279.142 175.738V178.738C281.176 178.738 282.519 179.325 283.412 180.312L285.636 178.298ZM279.142 175.738C276.514 175.738 274.261 176.573 272.534 178.332L274.675 180.434C275.756 179.333 277.195 178.738 279.142 178.738V175.738ZM272.524 178.342C270.836 180.094 270.037 182.347 270.037 184.96H273.037C273.037 182.997 273.617 181.532 274.684 180.424L272.524 178.342ZM270.037 184.96C270.037 187.573 270.836 189.826 272.524 191.578L274.684 189.496C273.617 188.388 273.037 186.923 273.037 184.96H270.037ZM272.563 191.617C274.312 193.302 276.55 194.104 279.142 194.104V191.104C277.21 191.104 275.756 190.528 274.645 189.457L272.563 191.617ZM279.142 194.104C281.383 194.104 283.352 193.563 284.906 192.34L283.05 189.982C282.161 190.683 280.905 191.104 279.142 191.104V194.104ZM285.478 191.161V188.821H282.478V191.161H285.478ZM283.966 187.321L279.247 187.36L279.272 190.36L283.991 190.321L283.966 187.321ZM280.759 188.86V182.581H277.759V188.86H280.759ZM331.994 184.96L330.494 184.928L330.494 184.96L330.494 184.991L331.994 184.96ZM327.86 194.866L326.799 193.805L326.794 193.81L327.86 194.866ZM317.954 199L317.985 197.5L317.969 197.5H317.954V199ZM307.229 199H305.729V200.5H307.229V199ZM307.229 170.92V169.42H305.729V170.92H307.229ZM317.954 170.92V172.42H317.97L317.986 172.42L317.954 170.92ZM324.935 172.792L324.168 174.081L324.179 174.088L324.935 172.792ZM330.122 177.979L328.826 178.735L328.833 178.746L330.122 177.979ZM314.6 178.291V176.791H313.1V178.291H314.6ZM314.6 191.629H313.1V193.129H314.6V191.629ZM322.712 189.796L323.739 190.889L323.751 190.878L323.762 190.868L322.712 189.796ZM322.712 180.163L321.673 181.245L321.679 181.251L321.685 181.257L322.712 180.163ZM330.494 184.991C330.563 188.325 329.365 191.24 326.799 193.805L328.921 195.927C332.023 192.824 333.581 189.135 333.494 184.929L330.494 184.991ZM326.794 193.81C324.259 196.369 321.347 197.569 317.985 197.5L317.923 200.5C322.153 200.587 325.845 199.031 328.926 195.922L326.794 193.81ZM317.954 197.5H307.229V200.5H317.954V197.5ZM308.729 199V170.92H305.729V199H308.729ZM307.229 172.42H317.954V169.42H307.229V172.42ZM317.986 172.42C320.166 172.374 322.218 172.92 324.168 174.081L325.702 171.503C323.284 170.064 320.682 169.362 317.922 169.42L317.986 172.42ZM324.179 174.088C326.14 175.231 327.683 176.774 328.826 178.735L331.418 177.223C330.013 174.816 328.098 172.901 325.691 171.496L324.179 174.088ZM328.833 178.746C329.994 180.696 330.54 182.748 330.494 184.928L333.494 184.992C333.552 182.232 332.85 179.63 331.411 177.212L328.833 178.746ZM313.1 178.291V191.629H316.1V178.291H313.1ZM314.6 193.129H317.798V190.129H314.6V193.129ZM317.798 193.129C320.111 193.129 322.13 192.401 323.739 190.889L321.685 188.703C320.694 189.635 319.437 190.129 317.798 190.129V193.129ZM323.762 190.868C325.356 189.306 326.123 187.291 326.123 184.96H323.123C323.123 186.581 322.616 187.79 321.662 188.724L323.762 190.868ZM326.123 184.96C326.123 182.61 325.36 180.591 323.739 179.069L321.685 181.257C322.612 182.127 323.123 183.306 323.123 184.96H326.123ZM323.751 179.081C322.143 177.538 320.12 176.791 317.798 176.791V179.791C319.428 179.791 320.681 180.292 321.673 181.245L323.751 179.081ZM317.798 176.791H314.6V179.791H317.798V176.791ZM364.392 184.96L362.893 184.931L362.892 184.96L362.893 184.989L364.392 184.96ZM362.403 192.487L363.699 193.242L362.403 192.487ZM356.787 198.103L357.538 199.402L357.542 199.399L356.787 198.103ZM349.299 200.053L349.329 198.553L349.299 198.553L349.27 198.553L349.299 200.053ZM341.772 198.103L341.017 199.399L341.028 199.405L341.772 198.103ZM336.156 192.487L334.854 193.231L334.86 193.242L336.156 192.487ZM334.206 184.96L335.706 184.989L335.707 184.96L335.706 184.931L334.206 184.96ZM336.156 177.472L334.86 176.717L334.858 176.722L336.156 177.472ZM341.772 171.856L341.017 170.56V170.56L341.772 171.856ZM349.299 169.867L349.27 171.367L349.299 171.367L349.328 171.367L349.299 169.867ZM359.946 174.313L358.886 175.374L359.946 174.313ZM343.839 179.461L344.9 180.522L344.909 180.513L343.839 179.461ZM343.839 190.498L342.77 191.55L342.779 191.559L343.839 190.498ZM354.759 190.498L355.82 191.559L355.829 191.55L354.759 190.498ZM354.759 179.461L353.69 180.513L353.699 180.522L354.759 179.461ZM362.893 184.989C362.939 187.357 362.351 189.596 361.107 191.732L363.699 193.242C365.211 190.646 365.95 187.867 365.892 184.931L362.893 184.989ZM361.107 191.732C359.86 193.874 358.174 195.559 356.032 196.807L357.542 199.399C360.132 197.891 362.191 195.832 363.699 193.242L361.107 191.732ZM356.037 196.804C353.929 198.022 351.702 198.6 349.329 198.553L349.27 201.553C352.201 201.61 354.966 200.888 357.538 199.402L356.037 196.804ZM349.27 198.553C346.897 198.6 344.654 198.022 342.517 196.801L341.028 199.405C343.623 200.888 346.398 201.61 349.329 201.553L349.27 198.553ZM342.527 196.807C340.385 195.559 338.7 193.874 337.453 191.732L334.86 193.242C336.369 195.832 338.427 197.891 341.017 199.399L342.527 196.807ZM337.459 191.743C336.237 189.605 335.659 187.363 335.706 184.989L332.707 184.931C332.649 187.861 333.371 190.637 334.854 193.231L337.459 191.743ZM335.706 184.931C335.659 182.557 336.237 180.33 337.455 178.222L334.858 176.722C333.371 179.294 332.649 182.059 332.707 184.989L335.706 184.931ZM337.453 178.227C338.7 176.085 340.385 174.4 342.527 173.152L341.017 170.56C338.427 172.068 336.369 174.127 334.86 176.717L337.453 178.227ZM342.527 173.152C344.663 171.908 346.902 171.32 349.27 171.367L349.329 168.367C346.392 168.31 343.613 169.048 341.017 170.56L342.527 173.152ZM349.328 171.367C352.95 171.297 356.113 172.601 358.886 175.374L361.007 173.252C357.696 169.941 353.761 168.281 349.27 168.367L349.328 171.367ZM358.886 175.374C361.659 178.147 362.962 181.31 362.893 184.931L365.892 184.989C365.978 180.498 364.318 176.563 361.007 173.252L358.886 175.374ZM342.779 178.4C340.986 180.193 340.077 182.409 340.077 184.96H343.077C343.077 183.195 343.677 181.745 344.9 180.522L342.779 178.4ZM340.077 184.96C340.077 187.51 340.985 189.734 342.77 191.55L344.909 189.446C343.678 188.194 343.077 186.726 343.077 184.96H340.077ZM342.779 191.559C344.568 193.348 346.769 194.26 349.299 194.26V191.26C347.565 191.26 346.127 190.664 344.9 189.437L342.779 191.559ZM349.299 194.26C351.829 194.26 354.031 193.348 355.82 191.559L353.699 189.437C352.472 190.664 351.033 191.26 349.299 191.26V194.26ZM355.829 191.55C357.614 189.734 358.521 187.51 358.521 184.96H355.521C355.521 186.726 354.921 188.194 353.69 189.446L355.829 191.55ZM358.521 184.96C358.521 182.409 357.613 180.193 355.82 178.4L353.699 180.522C354.922 181.745 355.521 183.195 355.521 184.96H358.521ZM355.829 178.409C354.042 176.591 351.838 175.66 349.299 175.66V178.66C351.025 178.66 352.461 179.263 353.69 180.513L355.829 178.409ZM349.299 175.66C346.761 175.66 344.557 176.591 342.77 178.409L344.909 180.513C346.138 179.263 347.574 178.66 349.299 178.66V175.66ZM385.379 186.013L384.188 186.924L386.879 190.443V186.013H385.379ZM385.379 170.92V169.42H383.879V170.92H385.379ZM392.75 170.92H394.25V169.42H392.75V170.92ZM392.75 199V200.5H394.25V199H392.75ZM386.549 199L385.358 199.911L385.808 200.5H386.549V199ZM375.005 183.907L376.197 182.996L373.505 179.477V183.907H375.005ZM375.005 199V200.5H376.505V199H375.005ZM367.634 199H366.134V200.5H367.634V199ZM367.634 170.92V169.42H366.134V170.92H367.634ZM373.835 170.92L375.027 170.009L374.576 169.42H373.835V170.92ZM386.879 186.013V170.92H383.879V186.013H386.879ZM385.379 172.42H392.75V169.42H385.379V172.42ZM391.25 170.92V199H394.25V170.92H391.25ZM392.75 197.5H386.549V200.5H392.75V197.5ZM387.741 198.089L376.197 182.996L373.814 184.818L385.358 199.911L387.741 198.089ZM373.505 183.907V199H376.505V183.907H373.505ZM375.005 197.5H367.634V200.5H375.005V197.5ZM369.134 199V170.92H366.134V199H369.134ZM367.634 172.42H373.835V169.42H367.634V172.42ZM372.644 171.831L384.188 186.924L386.571 185.102L375.027 170.009L372.644 171.831ZM416.574 178.291V179.791H418.074V178.291H416.574ZM404.367 178.291V176.791H402.867V178.291H404.367ZM404.367 181.762H402.867V183.262H404.367V181.762ZM414.702 181.762H416.202V180.262H414.702V181.762ZM414.702 188.08V189.58H416.202V188.08H414.702ZM404.367 188.08V186.58H402.867V188.08H404.367ZM404.367 191.629H402.867V193.129H404.367V191.629ZM416.574 191.629H418.074V190.129H416.574V191.629ZM416.574 199V200.5H418.074V199H416.574ZM396.996 199H395.496V200.5H396.996V199ZM396.996 170.92V169.42H395.496V170.92H396.996ZM416.574 170.92H418.074V169.42H416.574V170.92ZM416.574 176.791H404.367V179.791H416.574V176.791ZM402.867 178.291V181.762H405.867V178.291H402.867ZM404.367 183.262H414.702V180.262H404.367V183.262ZM413.202 181.762V188.08H416.202V181.762H413.202ZM414.702 186.58H404.367V189.58H414.702V186.58ZM402.867 188.08V191.629H405.867V188.08H402.867ZM404.367 193.129H416.574V190.129H404.367V193.129ZM415.074 191.629V199H418.074V191.629H415.074ZM416.574 197.5H396.996V200.5H416.574V197.5ZM398.496 199V170.92H395.496V199H398.496ZM396.996 172.42H416.574V169.42H396.996V172.42ZM415.074 170.92V178.291H418.074V170.92H415.074ZM456.534 199V200.5H459.155L457.827 198.24L456.534 199ZM448.344 199L447.04 199.742L447.472 200.5H448.344V199ZM443.391 190.303L444.694 189.561L444.263 188.803H443.391V190.303ZM440.856 190.303V188.803H439.356V190.303H440.856ZM440.856 199V200.5H442.356V199H440.856ZM433.485 199H431.985V200.5H433.485V199ZM433.485 170.92V169.42H431.985V170.92H433.485ZM451.62 173.728L450.566 174.796L450.574 174.803L451.62 173.728ZM453.375 184.96L454.685 185.691L454.691 185.68L453.375 184.96ZM450.255 188.314L449.423 187.066L448.244 187.852L448.962 189.074L450.255 188.314ZM440.856 178.291V176.791H439.356V178.291H440.856ZM440.856 183.985H439.356V185.485H440.856V183.985ZM456.534 197.5H448.344V200.5H456.534V197.5ZM449.647 198.258L444.694 189.561L442.087 191.045L447.04 199.742L449.647 198.258ZM443.391 188.803H440.856V191.803H443.391V188.803ZM439.356 190.303V199H442.356V190.303H439.356ZM440.856 197.5H433.485V200.5H440.856V197.5ZM434.985 199V170.92H431.985V199H434.985ZM433.485 172.42H444.639V169.42H433.485V172.42ZM444.639 172.42C447.015 172.42 448.96 173.211 450.566 174.796L452.673 172.66C450.484 170.501 447.774 169.42 444.639 169.42V172.42ZM450.574 174.803C452.212 176.397 453.006 178.273 453.006 180.514H456.006C456.006 177.451 454.876 174.803 452.666 172.653L450.574 174.803ZM453.006 180.514C453.006 181.851 452.691 183.085 452.059 184.24L454.691 185.68C455.567 184.079 456.006 182.349 456.006 180.514H453.006ZM452.065 184.229C451.43 185.367 450.557 186.31 449.423 187.066L451.087 189.562C452.605 188.55 453.811 187.257 454.685 185.691L452.065 184.229ZM448.962 189.074L455.241 199.76L457.827 198.24L451.548 187.554L448.962 189.074ZM439.356 178.291V183.985H442.356V178.291H439.356ZM440.856 185.485H443.352V182.485H440.856V185.485ZM443.352 185.485C444.775 185.485 446.107 185.169 447.125 184.315L445.195 182.017C444.912 182.255 444.373 182.485 443.352 182.485V185.485ZM447.125 184.315C448.161 183.444 448.635 182.243 448.635 180.904H445.635C445.635 181.489 445.458 181.796 445.195 182.017L447.125 184.315ZM448.635 180.904C448.635 179.675 448.21 178.531 447.185 177.751C446.238 177.029 444.995 176.791 443.703 176.791V179.791C444.699 179.791 445.172 179.988 445.368 180.138C445.487 180.229 445.635 180.391 445.635 180.904H448.635ZM443.703 176.791H440.856V179.791H443.703V176.791ZM466.527 199V200.5H468.027V199H466.527ZM459.156 199H457.656V200.5H459.156V199ZM459.156 170.92V169.42H457.656V170.92H459.156ZM466.527 170.92H468.027V169.42H466.527V170.92ZM466.527 197.5H459.156V200.5H466.527V197.5ZM460.656 199V170.92H457.656V199H460.656ZM459.156 172.42H466.527V169.42H459.156V172.42ZM465.027 170.92V199H468.027V170.92H465.027ZM484.847 182.581V181.081H483.347V182.581H484.847ZM496.937 182.581H498.437V181.081H496.937V182.581ZM496.937 194.554L498.096 195.507L498.437 195.092V194.554H496.937ZM484.847 200.053V198.553H484.832L484.818 198.553L484.847 200.053ZM477.32 198.103L476.565 199.399L476.576 199.405L477.32 198.103ZM471.704 192.487L470.402 193.231L470.408 193.242L471.704 192.487ZM469.754 184.96L471.254 184.989L471.254 184.96L471.254 184.931L469.754 184.96ZM471.704 177.472L470.408 176.717L470.405 176.722L471.704 177.472ZM477.32 171.856L476.565 170.56V170.56L477.32 171.856ZM484.847 169.867L484.818 171.367L484.832 171.367H484.847V169.867ZM495.455 174.274L496.483 175.366L497.532 174.379L496.588 173.291L495.455 174.274ZM490.112 179.305L489 180.312L490.027 181.446L491.14 180.397L490.112 179.305ZM479.192 179.383L478.122 178.332L478.112 178.342L479.192 179.383ZM479.192 190.537L478.112 191.578L478.131 191.598L478.151 191.617L479.192 190.537ZM489.566 191.161L490.494 192.34L491.066 191.889V191.161H489.566ZM489.566 188.821H491.066V187.309L489.554 187.321L489.566 188.821ZM484.847 188.86H483.347V190.372L484.86 190.36L484.847 188.86ZM484.847 184.081H496.937V181.081H484.847V184.081ZM495.437 182.581V194.554H498.437V182.581H495.437ZM495.779 193.601C493.068 196.897 489.475 198.553 484.847 198.553V201.553C490.308 201.553 494.775 199.543 498.096 195.507L495.779 193.601ZM484.818 198.553C482.444 198.6 480.202 198.022 478.064 196.801L476.576 199.405C479.171 200.888 481.946 201.61 484.877 201.553L484.818 198.553ZM478.075 196.807C475.933 195.559 474.248 193.874 473 191.732L470.408 193.242C471.917 195.832 473.975 197.891 476.565 199.399L478.075 196.807ZM473.007 191.743C471.785 189.605 471.207 187.363 471.254 184.989L468.254 184.931C468.197 187.861 468.919 190.637 470.402 193.231L473.007 191.743ZM471.254 184.931C471.207 182.557 471.785 180.33 473.003 178.222L470.405 176.722C468.919 179.294 468.197 182.059 468.254 184.989L471.254 184.931ZM473 178.227C474.248 176.085 475.933 174.4 478.075 173.152L476.565 170.56C473.975 172.068 471.917 174.127 470.408 176.717L473 178.227ZM478.075 173.152C480.211 171.908 482.45 171.32 484.818 171.367L484.877 168.367C481.94 168.31 479.161 169.048 476.565 170.56L478.075 173.152ZM484.847 171.367C489.015 171.367 492.107 172.702 494.322 175.257L496.588 173.291C493.708 169.97 489.727 168.367 484.847 168.367V171.367ZM494.427 173.182L489.084 178.213L491.14 180.397L496.483 175.366L494.427 173.182ZM491.224 178.298C489.621 176.529 487.376 175.738 484.73 175.738V178.738C486.764 178.738 488.107 179.325 489 180.312L491.224 178.298ZM484.73 175.738C482.102 175.738 479.849 176.573 478.122 178.332L480.263 180.434C481.344 179.333 482.783 178.738 484.73 178.738V175.738ZM478.112 178.342C476.424 180.094 475.625 182.347 475.625 184.96H478.625C478.625 182.997 479.205 181.532 480.272 180.424L478.112 178.342ZM475.625 184.96C475.625 187.573 476.424 189.826 478.112 191.578L480.272 189.496C479.205 188.388 478.625 186.923 478.625 184.96H475.625ZM478.151 191.617C479.9 193.302 482.138 194.104 484.73 194.104V191.104C482.798 191.104 481.344 190.528 480.233 189.457L478.151 191.617ZM484.73 194.104C486.971 194.104 488.94 193.563 490.494 192.34L488.638 189.982C487.749 190.683 486.493 191.104 484.73 191.104V194.104ZM491.066 191.161V188.821H488.066V191.161H491.066ZM489.554 187.321L484.835 187.36L484.86 190.36L489.579 190.321L489.554 187.321ZM486.347 188.86V182.581H483.347V188.86H486.347ZM524.274 199V200.5H525.774V199H524.274ZM516.903 199H515.403V200.5H516.903V199ZM516.903 188.626H518.403V187.126H516.903V188.626ZM507.387 188.626V187.126H505.887V188.626H507.387ZM507.387 199V200.5H508.887V199H507.387ZM500.016 199H498.516V200.5H500.016V199ZM500.016 170.92V169.42H498.516V170.92H500.016ZM507.387 170.92H508.887V169.42H507.387V170.92ZM507.387 181.255H505.887V182.755H507.387V181.255ZM516.903 181.255V182.755H518.403V181.255H516.903ZM516.903 170.92V169.42H515.403V170.92H516.903ZM524.274 170.92H525.774V169.42H524.274V170.92ZM524.274 197.5H516.903V200.5H524.274V197.5ZM518.403 199V188.626H515.403V199H518.403ZM516.903 187.126H507.387V190.126H516.903V187.126ZM505.887 188.626V199H508.887V188.626H505.887ZM507.387 197.5H500.016V200.5H507.387V197.5ZM501.516 199V170.92H498.516V199H501.516ZM500.016 172.42H507.387V169.42H500.016V172.42ZM505.887 170.92V181.255H508.887V170.92H505.887ZM507.387 182.755H516.903V179.755H507.387V182.755ZM518.403 181.255V170.92H515.403V181.255H518.403ZM516.903 172.42H524.274V169.42H516.903V172.42ZM522.774 170.92V199H525.774V170.92H522.774ZM549.687 178.291V179.791H551.187V178.291H549.687ZM542.199 178.291V176.791H540.699V178.291H542.199ZM542.199 199V200.5H543.699V199H542.199ZM534.828 199H533.328V200.5H534.828V199ZM534.828 178.291H536.328V176.791H534.828V178.291ZM527.301 178.291H525.801V179.791H527.301V178.291ZM527.301 170.92V169.42H525.801V170.92H527.301ZM549.687 170.92H551.187V169.42H549.687V170.92ZM549.687 176.791H542.199V179.791H549.687V176.791ZM540.699 178.291V199H543.699V178.291H540.699ZM542.199 197.5H534.828V200.5H542.199V197.5ZM536.328 199V178.291H533.328V199H536.328ZM534.828 176.791H527.301V179.791H534.828V176.791ZM528.801 178.291V170.92H525.801V178.291H528.801ZM527.301 172.42H549.687V169.42H527.301V172.42ZM548.187 170.92V178.291H551.187V170.92H548.187Z" fill="#F4F3F0" mask="url(#path-31-outside-1_698_370)"/>
<a xlink:href="https://www.facebook.com/SolidSoftwareHQ/?locale=ru_RU">
 <rect x="59.4453" y="279.168" width="20.6667" height="20.6667" rx="4" fill="#0D1117"/>
 <path d="M68.6441 289.731V294.517H70.5803V289.731H72.1988L72.4403 287.854H70.5803V286.657C70.5803 286.115 70.7304 285.748 71.507 285.748H72.4947V284.075C72.0117 284.02 71.5266 283.994 71.0415 283.992C69.6122 283.992 68.6354 284.865 68.6354 286.468V287.845H67.0234V289.731H68.6441Z" fill="#EFF1F5"/>
 </a>
<rect x="93.8906" y="279.168" width="20.6667" height="20.6667" rx="4" fill="#0D1117"/>
<rect x="99" y="284" width="11" height="11" rx="3" fill="#EFF1F5"/>
<path d="M107.62 286.24C107.962 286.24 108.24 285.962 108.24 285.62C108.24 285.278 107.962 285 107.62 285C107.278 285 107 285.278 107 285.62C107 285.962 107.278 286.24 107.62 286.24Z" fill="#141824"/>
<circle cx="104.5" cy="289.5" r="3" stroke="#141824"/>
<rect x="128.332" y="279.168" width="20.6667" height="20.6667" rx="4" fill="#0D1117"/>
<path d="M135.566 287.312H133.487C133.395 287.312 133.32 287.387 133.32 287.48V294.159C133.32 294.251 133.395 294.326 133.487 294.326H135.566C135.659 294.326 135.733 294.251 135.733 294.159V287.48C135.733 287.387 135.659 287.312 135.566 287.312Z" fill="#EFF1F5"/>
<path d="M134.528 283.992C133.772 283.992 133.156 284.607 133.156 285.363C133.156 286.119 133.772 286.734 134.528 286.734C135.284 286.734 135.899 286.119 135.899 285.363C135.899 284.607 135.284 283.992 134.528 283.992Z" fill="#EFF1F5"/>
<path d="M140.855 287.145C140.02 287.145 139.403 287.503 139.028 287.911V287.478C139.028 287.385 138.953 287.311 138.861 287.311H136.87C136.778 287.311 136.703 287.385 136.703 287.478V294.157C136.703 294.249 136.778 294.324 136.87 294.324H138.945C139.037 294.324 139.112 294.249 139.112 294.157V290.852C139.112 289.738 139.414 289.305 140.19 289.305C141.036 289.305 141.103 290 141.103 290.909V294.157C141.103 294.249 141.178 294.324 141.27 294.324H143.345C143.438 294.324 143.512 294.249 143.512 294.157V290.493C143.512 288.837 143.197 287.145 140.855 287.145Z" fill="#EFF1F5"/>
<rect x="25" y="279" width="20.6667" height="20.6667" rx="4" fill="#0D1117"/>
<path d="M30.1942 284L34.1881 289.634L30 294.33H30.8927L34.5837 290.192L37.5169 294.33H40.33L36.1507 288.434L40.1061 284H39.214L35.7557 287.877L33.0073 284H30.1942Z" fill="#EFF1F5"/>
<path d="M31.682 250.81H27.145V253.735H31.097V254.905H27.145V257.83H31.708V259H25.975V249.64H31.682V250.81ZM37.1415 255.438L39.8325 259H38.4025L36.4265 256.413L34.4115 259H32.9815L35.6725 255.516L32.9815 251.98H34.4245L36.4005 254.541L38.3895 251.98H39.8195L37.1415 255.438ZM42.302 258.428V262.042H41.132V251.98H42.302V252.617C42.4753 252.357 42.7743 252.132 43.199 251.941C43.6237 251.733 44.096 251.629 44.616 251.629C45.604 251.612 46.4447 251.984 47.138 252.747C47.84 253.501 48.1867 254.424 48.178 255.516C48.178 256.625 47.8487 257.54 47.19 258.259C46.54 258.978 45.6777 259.338 44.603 259.338C44.1783 259.338 43.7233 259.238 43.238 259.039C42.7613 258.84 42.4493 258.636 42.302 258.428ZM47.008 255.477C47.0253 254.818 46.8087 254.203 46.358 253.631C45.916 253.059 45.344 252.782 44.642 252.799C43.992 252.799 43.4417 253.011 42.991 253.436C42.5317 253.869 42.302 254.55 42.302 255.477C42.302 256.344 42.5143 257.011 42.939 257.479C43.3723 257.938 43.94 258.168 44.642 258.168C45.37 258.168 45.9463 257.904 46.371 257.375C46.7957 256.838 47.008 256.205 47.008 255.477ZM50.9614 259H49.7914V249.64H50.9614V259ZM60.2338 255.49C60.2511 256.539 59.8698 257.449 59.0898 258.22C58.3184 258.991 57.4128 259.368 56.3728 259.351C55.3241 259.368 54.4141 258.991 53.6428 258.22C52.8714 257.449 52.4944 256.539 52.5118 255.49C52.4944 254.45 52.8714 253.544 53.6428 252.773C54.4141 251.993 55.3241 251.612 56.3728 251.629C57.4128 251.612 58.3184 251.993 59.0898 252.773C59.8698 253.544 60.2511 254.45 60.2338 255.49ZM54.4748 253.592C53.9461 254.121 53.6818 254.753 53.6818 255.49C53.6818 256.227 53.9461 256.859 54.4748 257.388C55.0034 257.917 55.6361 258.181 56.3728 258.181C57.1094 258.181 57.7421 257.917 58.2708 257.388C58.7994 256.859 59.0638 256.227 59.0638 255.49C59.0638 254.753 58.7994 254.121 58.2708 253.592C57.7421 253.063 57.1094 252.799 56.3728 252.799C55.6361 252.799 55.0034 253.063 54.4748 253.592ZM65.9745 252.045L65.3375 253.228C65.0341 252.959 64.6831 252.825 64.2845 252.825C63.9291 252.825 63.6085 253.02 63.3225 253.41C63.0451 253.791 62.9065 254.225 62.9065 254.71V259H61.7365V251.98H62.9065V252.552C63.0711 252.301 63.3138 252.088 63.6345 251.915C63.9638 251.733 64.2975 251.642 64.6355 251.642C65.1728 251.642 65.6191 251.776 65.9745 252.045ZM70.1698 259.351C69.1038 259.368 68.1982 258.996 67.4528 258.233C66.7162 257.47 66.3565 256.556 66.3738 255.49C66.3565 254.441 66.7205 253.531 67.4658 252.76C68.2198 251.98 69.1038 251.603 70.1178 251.629C71.1405 251.629 71.9985 251.967 72.6918 252.643C73.3938 253.319 73.7448 254.181 73.7448 255.23C73.7448 255.559 73.7015 255.858 73.6148 256.127H67.5698C67.6478 256.612 67.9512 257.08 68.4798 257.531C69.0172 257.982 69.5805 258.198 70.1698 258.181C70.5945 258.181 71.0062 258.086 71.4048 257.895C71.8122 257.696 72.1242 257.444 72.3408 257.141L73.4068 257.674C72.5748 258.792 71.4958 259.351 70.1698 259.351ZM70.1308 252.799C69.4288 252.799 68.8525 252.998 68.4018 253.397C67.9598 253.796 67.6868 254.316 67.5828 254.957H72.5358C72.5012 254.333 72.2585 253.817 71.8078 253.41C71.3572 253.003 70.7982 252.799 70.1308 252.799ZM86.767 255.49C86.7843 256.539 86.403 257.449 85.623 258.22C84.8516 258.991 83.946 259.368 82.906 259.351C81.8573 259.368 80.9473 258.991 80.176 258.22C79.4046 257.449 79.0276 256.539 79.045 255.49C79.0276 254.45 79.4046 253.544 80.176 252.773C80.9473 251.993 81.8573 251.612 82.906 251.629C83.946 251.612 84.8516 251.993 85.623 252.773C86.403 253.544 86.7843 254.45 86.767 255.49ZM81.008 253.592C80.4793 254.121 80.215 254.753 80.215 255.49C80.215 256.227 80.4793 256.859 81.008 257.388C81.5366 257.917 82.1693 258.181 82.906 258.181C83.6426 258.181 84.2753 257.917 84.804 257.388C85.3326 256.859 85.597 256.227 85.597 255.49C85.597 254.753 85.3326 254.121 84.804 253.592C84.2753 253.063 83.6426 252.799 82.906 252.799C82.1693 252.799 81.5366 253.063 81.008 253.592ZM88.1527 255.867V251.98H89.3227V255.932C89.3227 257.423 89.9727 258.168 91.2727 258.168C91.862 258.168 92.369 257.99 92.7937 257.635C93.227 257.271 93.4437 256.781 93.4437 256.166V251.98H94.6137V259H93.4437V258.428C93.2877 258.636 92.9887 258.84 92.5467 259.039C92.1047 259.238 91.6887 259.338 91.2987 259.338C90.25 259.338 89.4613 259.065 88.9327 258.519C88.4127 257.964 88.1527 257.08 88.1527 255.867ZM100.696 252.045L100.059 253.228C99.7558 252.959 99.4048 252.825 99.0062 252.825C98.6508 252.825 98.3302 253.02 98.0442 253.41C97.7668 253.791 97.6282 254.225 97.6282 254.71V259H96.4582V251.98H97.6282V252.552C97.7928 252.301 98.0355 252.088 98.3562 251.915C98.6855 251.733 99.0192 251.642 99.3572 251.642C99.8945 251.642 100.341 251.776 100.696 252.045Z" fill="white"/>
<path d="M115.257 251.98H116.505L113.983 259H112.813L111.045 253.813L109.29 259H108.12L105.611 251.98H106.859L108.705 257.206L110.434 251.98H111.682L113.398 257.206L115.257 251.98ZM120.735 259.351C119.669 259.368 118.764 258.996 118.018 258.233C117.282 257.47 116.922 256.556 116.939 255.49C116.922 254.441 117.286 253.531 118.031 252.76C118.785 251.98 119.669 251.603 120.683 251.629C121.706 251.629 122.564 251.967 123.257 252.643C123.959 253.319 124.31 254.181 124.31 255.23C124.31 255.559 124.267 255.858 124.18 256.127H118.135C118.213 256.612 118.517 257.08 119.045 257.531C119.583 257.982 120.146 258.198 120.735 258.181C121.16 258.181 121.572 258.086 121.97 257.895C122.378 257.696 122.69 257.444 122.906 257.141L123.972 257.674C123.14 258.792 122.061 259.351 120.735 259.351ZM120.696 252.799C119.994 252.799 119.418 252.998 118.967 253.397C118.525 253.796 118.252 254.316 118.148 254.957H123.101C123.067 254.333 122.824 253.817 122.373 253.41C121.923 253.003 121.364 252.799 120.696 252.799ZM129.205 251.642C130.279 251.642 131.142 252.002 131.792 252.721C132.45 253.44 132.78 254.355 132.78 255.464C132.788 256.556 132.442 257.483 131.74 258.246C131.046 259 130.206 259.368 129.218 259.351C128.715 259.351 128.247 259.251 127.814 259.052C127.389 258.861 127.086 258.627 126.904 258.35V259H125.734V249.64H126.904V252.552C127.051 252.344 127.363 252.14 127.84 251.941C128.325 251.742 128.78 251.642 129.205 251.642ZM126.904 255.503C126.904 256.43 127.133 257.111 127.593 257.544C128.043 257.969 128.594 258.181 129.244 258.181C129.946 258.198 130.518 257.921 130.96 257.349C131.41 256.777 131.627 256.162 131.61 255.503C131.61 254.775 131.397 254.147 130.973 253.618C130.548 253.081 129.972 252.812 129.244 252.812C128.542 252.812 127.974 253.046 127.541 253.514C127.116 253.973 126.904 254.636 126.904 255.503ZM136.942 258.181C137.523 258.181 137.982 258.081 138.32 257.882C138.658 257.674 138.827 257.375 138.827 256.985C138.827 256.664 138.675 256.439 138.372 256.309C138.086 256.17 137.778 256.075 137.449 256.023L136.864 255.919C135.867 255.737 135.17 255.499 134.771 255.204C134.372 254.909 134.173 254.467 134.173 253.878C134.173 253.237 134.429 252.704 134.94 252.279C135.46 251.846 136.106 251.629 136.877 251.629C137.475 251.629 137.982 251.72 138.398 251.902C138.823 252.084 139.243 252.374 139.659 252.773L138.84 253.54C138.294 253.046 137.674 252.799 136.981 252.799C136.539 252.799 136.158 252.881 135.837 253.046C135.508 253.219 135.343 253.484 135.343 253.839C135.343 254.09 135.464 254.285 135.707 254.424C135.958 254.554 136.366 254.662 136.929 254.749C137.596 254.862 138.129 254.979 138.528 255.1C139.507 255.403 139.997 256.066 139.997 257.089C139.997 257.73 139.72 258.268 139.165 258.701C138.61 259.134 137.869 259.351 136.942 259.351C135.729 259.351 134.719 258.861 133.913 257.882L134.823 257.115C134.962 257.297 135.118 257.475 135.291 257.648C135.664 258.003 136.214 258.181 136.942 258.181ZM142.723 250.81H141.553V249.64H142.723V250.81ZM142.723 259H141.553V251.98H142.723V259ZM146.756 259.351C146.236 259.351 145.829 259.169 145.534 258.805C145.24 258.432 145.092 257.917 145.092 257.258V253.15H144.156V251.98H145.092V249.64H146.262V251.98H147.692V253.15H146.262V257.232C146.262 257.778 146.479 258.051 146.912 258.051C147.138 258.051 147.376 258.008 147.627 257.921L147.887 259.091C147.471 259.264 147.094 259.351 146.756 259.351ZM152.613 259.351C151.547 259.368 150.642 258.996 149.896 258.233C149.16 257.47 148.8 256.556 148.817 255.49C148.8 254.441 149.164 253.531 149.909 252.76C150.663 251.98 151.547 251.603 152.561 251.629C153.584 251.629 154.442 251.967 155.135 252.643C155.837 253.319 156.188 254.181 156.188 255.23C156.188 255.559 156.145 255.858 156.058 256.127H150.013C150.091 256.612 150.395 257.08 150.923 257.531C151.461 257.982 152.024 258.198 152.613 258.181C153.038 258.181 153.45 258.086 153.848 257.895C154.256 257.696 154.568 257.444 154.784 257.141L155.85 257.674C155.018 258.792 153.939 259.351 152.613 259.351ZM152.574 252.799C151.872 252.799 151.296 252.998 150.845 253.397C150.403 253.796 150.13 254.316 150.026 254.957H154.979C154.945 254.333 154.702 253.817 154.251 253.41C153.801 253.003 153.242 252.799 152.574 252.799Z" fill="#ED5118"/>
<path d="M105.247 261.6H156.682V262.25H105.247V261.6Z" fill="#ED5118"/>
<path d="M161.577 259.814L168.299 253.092L168.227 257.899L169.511 257.88L169.615 250.881L162.617 250.985L162.598 252.269L167.404 252.198L160.683 258.919L161.577 259.814Z" fill="#F05315"/>
</g>
<defs>
<filter id="filter0_f_698_370" x="572.785" y="170.379" width="264.527" height="203.406" filterUnits="userSpaceOnUse" color-interpolation-filters="sRGB">
<feFlood flood-opacity="0" result="BackgroundImageFix"/>
<feBlend mode="normal" in="SourceGraphic" in2="BackgroundImageFix" result="shape"/>
<feGaussianBlur stdDeviation="20" result="effect1_foregroundBlur_698_370"/>
</filter>
<filter id="filter1_b_698_370" x="666.047" y="175.73" width="151.781" height="120.191" filterUnits="userSpaceOnUse" color-interpolation-filters="sRGB">
<feFlood flood-opacity="0" result="BackgroundImageFix"/>
<feGaussianBlur in="BackgroundImageFix" stdDeviation="5"/>
<feComposite in2="SourceAlpha" operator="in" result="effect1_backgroundBlur_698_370"/>
<feBlend mode="normal" in="SourceGraphic" in2="effect1_backgroundBlur_698_370" result="shape"/>
</filter>
<filter id="filter2_b_698_370" x="608.844" y="111.625" width="114.031" height="184.293" filterUnits="userSpaceOnUse" color-interpolation-filters="sRGB">
<feFlood flood-opacity="0" result="BackgroundImageFix"/>
<feGaussianBlur in="BackgroundImageFix" stdDeviation="5"/>
<feComposite in2="SourceAlpha" operator="in" result="effect1_backgroundBlur_698_370"/>
<feBlend mode="normal" in="SourceGraphic" in2="effect1_backgroundBlur_698_370" result="shape"/>
</filter>
<filter id="filter3_b_698_370" x="645.684" y="99.5742" width="172.141" height="108.242" filterUnits="userSpaceOnUse" color-interpolation-filters="sRGB">
<feFlood flood-opacity="0" result="BackgroundImageFix"/>
<feGaussianBlur in="BackgroundImageFix" stdDeviation="5"/>
<feComposite in2="SourceAlpha" operator="in" result="effect1_backgroundBlur_698_370"/>
<feBlend mode="normal" in="SourceGraphic" in2="effect1_backgroundBlur_698_370" result="shape"/>
</filter>
<linearGradient id="paint0_linear_698_370" x1="383.403" y1="324.773" x2="377.783" y2="24.86" gradientUnits="userSpaceOnUse">
<stop stop-color="#3A8EF0"/>
<stop offset="0.709145" stop-color="#3A8EF0" stop-opacity="0.411856"/>
<stop offset="0.91176" stop-color="#3A8EF0" stop-opacity="0"/>
</linearGradient>
<linearGradient id="paint1_linear_698_370" x1="685.005" y1="268.721" x2="604.99" y2="267.637" gradientUnits="userSpaceOnUse">
<stop stop-color="#6BAAF3" stop-opacity="0.11"/>
<stop offset="1" stop-color="#91BFF5" stop-opacity="0"/>
</linearGradient>
<linearGradient id="paint2_linear_698_370" x1="773.669" y1="272.095" x2="731.452" y2="155.356" gradientUnits="userSpaceOnUse">
<stop stop-color="#262A36"/>
<stop offset="0.491288" stop-color="#3C5673" stop-opacity="0.53"/>
</linearGradient>
<linearGradient id="paint3_linear_698_370" x1="24.7717" y1="0" x2="24.7717" y2="49.5434" gradientUnits="userSpaceOnUse">
<stop stop-color="#F05315"/>
<stop offset="1" stop-color="#FC2658"/>
</linearGradient>
<linearGradient id="paint4_linear_698_370" x1="757.61" y1="267.731" x2="697.377" y2="175.557" gradientUnits="userSpaceOnUse">
<stop offset="0.123229" stop-color="#2F6DB6"/>
<stop offset="1" stop-color="#0E3562" stop-opacity="0"/>
</linearGradient>
<linearGradient id="paint5_linear_698_370" x1="804.422" y1="267.068" x2="770.827" y2="191.313" gradientUnits="userSpaceOnUse">
<stop stop-color="#3C5673" stop-opacity="0.53"/>
<stop offset="0.942708" stop-color="#262A36" stop-opacity="0.72"/>
</linearGradient>
<linearGradient id="paint6_linear_698_370" x1="658.384" y1="137.232" x2="663.973" y2="317.115" gradientUnits="userSpaceOnUse">
<stop offset="0.342484" stop-color="#2F6DB6"/>
<stop offset="0.889807" stop-color="#0E3562" stop-opacity="0"/>
</linearGradient>
<linearGradient id="paint7_linear_698_370" x1="700.414" y1="196.393" x2="639.235" y2="111.842" gradientUnits="userSpaceOnUse">
<stop stop-color="#262A36" stop-opacity="0.72"/>
<stop offset="0.491288" stop-color="#3C5673" stop-opacity="0.53"/>
</linearGradient>
<linearGradient id="paint8_linear_698_370" x1="824.585" y1="196.63" x2="661.501" y2="131.639" gradientUnits="userSpaceOnUse">
<stop stop-color="#0E3562" stop-opacity="0"/>
<stop offset="0.740779" stop-color="#2F6DB6"/>
</linearGradient>
<linearGradient id="paint9_linear_698_370" x1="858.231" y1="210.274" x2="862.419" y2="134.211" gradientUnits="userSpaceOnUse">
<stop stop-color="#262A36" stop-opacity="0.72"/>
<stop offset="1" stop-color="#3C5673" stop-opacity="0.53"/>
</linearGradient>
<linearGradient id="paint10_linear_698_370" x1="657.84" y1="283.895" x2="720.132" y2="180.532" gradientUnits="userSpaceOnUse">
<stop stop-color="#3C5673" stop-opacity="0"/>
<stop offset="0.234212" stop-color="#3C5673"/>
<stop offset="0.469748" stop-color="#3C5673"/>
<stop offset="0.798595" stop-color="#3C5673"/>
<stop offset="1" stop-color="#3C5673" stop-opacity="0"/>
</linearGradient>
<linearGradient id="paint11_linear_698_370" x1="652.718" y1="295.377" x2="727.669" y2="178.789" gradientUnits="userSpaceOnUse">
<stop stop-color="#3C5673" stop-opacity="0"/>
<stop offset="0.234212" stop-color="#3C5673"/>
<stop offset="0.469748" stop-color="#3C5673"/>
<stop offset="0.798595" stop-color="#3C5673"/>
<stop offset="1" stop-color="#3C5673" stop-opacity="0"/>
</linearGradient>
<linearGradient id="paint12_linear_698_370" x1="665.66" y1="109.578" x2="722.959" y2="213.385" gradientUnits="userSpaceOnUse">
<stop stop-color="#3C5673" stop-opacity="0"/>
<stop offset="0.234212" stop-color="#3C5673"/>
<stop offset="0.469748" stop-color="#3C5673"/>
<stop offset="0.798595" stop-color="#3C5673"/>
<stop offset="1" stop-color="#3C5673" stop-opacity="0"/>
</linearGradient>
<linearGradient id="paint13_linear_698_370" x1="658.671" y1="99.5068" x2="721.282" y2="220.913" gradientUnits="userSpaceOnUse">
<stop stop-color="#3C5673" stop-opacity="0"/>
<stop offset="0.234212" stop-color="#3C5673"/>
<stop offset="0.469748" stop-color="#3C5673"/>
<stop offset="0.798595" stop-color="#3C5673"/>
<stop offset="1" stop-color="#3C5673" stop-opacity="0"/>
</linearGradient>
<linearGradient id="paint14_linear_698_370" x1="84.2873" y1="26.7459" x2="78.8072" y2="32.3225" gradientUnits="userSpaceOnUse">
<stop offset="0.4033" stop-color="#ED5118"/>
<stop offset="1" stop-color="#FE2758"/>
</linearGradient>
<clipPath id="clip0_698_370">
<rect width="830" height="325" fill="white"/>
</clipPath>
</defs>
</svg>
