<svg width="149" height="18" viewBox="0 0 149 18" fill="none" xmlns="http://www.w3.org/2000/svg">
<path d="M6.682 5.81H2.145V8.735H6.097V9.905H2.145V12.83H6.708V14H0.975V4.64H6.682V5.81ZM12.1415 10.438L14.8325 14H13.4025L11.4265 11.413L9.41149 14H7.98149L10.6725 10.516L7.98149 6.98H9.42449L11.4005 9.541L13.3895 6.98H14.8195L12.1415 10.438ZM17.302 13.428V17.042H16.132V6.98H17.302V7.617C17.4753 7.357 17.7743 7.13167 18.199 6.941C18.6237 6.733 19.096 6.629 19.616 6.629C20.604 6.61167 21.4447 6.98433 22.138 7.747C22.84 8.501 23.1867 9.424 23.178 10.516C23.178 11.6253 22.8487 12.5397 22.19 13.259C21.54 13.9783 20.6777 14.338 19.603 14.338C19.1783 14.338 18.7233 14.2383 18.238 14.039C17.7613 13.8397 17.4493 13.636 17.302 13.428ZM22.008 10.477C22.0253 9.81833 21.8087 9.203 21.358 8.631C20.916 8.059 20.344 7.78167 19.642 7.799C18.992 7.799 18.4417 8.01133 17.991 8.436C17.5317 8.86933 17.302 9.54967 17.302 10.477C17.302 11.3437 17.5143 12.011 17.939 12.479C18.3723 12.9383 18.94 13.168 19.642 13.168C20.37 13.168 20.9463 12.9037 21.371 12.375C21.7957 11.8377 22.008 11.205 22.008 10.477ZM25.9614 14H24.7914V4.64H25.9614V14ZM35.2338 10.49C35.2511 11.5387 34.8698 12.4487 34.0898 13.22C33.3184 13.9913 32.4128 14.3683 31.3728 14.351C30.3241 14.3683 29.4141 13.9913 28.6428 13.22C27.8714 12.4487 27.4944 11.5387 27.5118 10.49C27.4944 9.45 27.8714 8.54433 28.6428 7.773C29.4141 6.993 30.3241 6.61167 31.3728 6.629C32.4128 6.61167 33.3184 6.993 34.0898 7.773C34.8698 8.54433 35.2511 9.45 35.2338 10.49ZM29.4748 8.592C28.9461 9.12067 28.6818 9.75333 28.6818 10.49C28.6818 11.2267 28.9461 11.8593 29.4748 12.388C30.0034 12.9167 30.6361 13.181 31.3728 13.181C32.1094 13.181 32.7421 12.9167 33.2708 12.388C33.7994 11.8593 34.0638 11.2267 34.0638 10.49C34.0638 9.75333 33.7994 9.12067 33.2708 8.592C32.7421 8.06333 32.1094 7.799 31.3728 7.799C30.6361 7.799 30.0034 8.06333 29.4748 8.592ZM40.9745 7.045L40.3375 8.228C40.0341 7.95933 39.6831 7.825 39.2845 7.825C38.9291 7.825 38.6085 8.02 38.3225 8.41C38.0451 8.79133 37.9065 9.22467 37.9065 9.71V14H36.7365V6.98H37.9065V7.552C38.0711 7.30067 38.3138 7.08833 38.6345 6.915C38.9638 6.733 39.2975 6.642 39.6355 6.642C40.1728 6.642 40.6191 6.77633 40.9745 7.045ZM45.1698 14.351C44.1038 14.3683 43.1982 13.9957 42.4528 13.233C41.7162 12.4703 41.3565 11.556 41.3738 10.49C41.3565 9.44133 41.7205 8.53133 42.4658 7.76C43.2198 6.98 44.1038 6.603 45.1178 6.629C46.1405 6.629 46.9985 6.967 47.6918 7.643C48.3938 8.319 48.7448 9.18133 48.7448 10.23C48.7448 10.5593 48.7015 10.8583 48.6148 11.127H42.5698C42.6478 11.6123 42.9512 12.0803 43.4798 12.531C44.0172 12.9817 44.5805 13.1983 45.1698 13.181C45.5945 13.181 46.0062 13.0857 46.4048 12.895C46.8122 12.6957 47.1242 12.4443 47.3408 12.141L48.4068 12.674C47.5748 13.792 46.4958 14.351 45.1698 14.351ZM45.1308 7.799C44.4288 7.799 43.8525 7.99833 43.4018 8.397C42.9598 8.79567 42.6868 9.31567 42.5828 9.957H47.5358C47.5012 9.333 47.2585 8.81733 46.8078 8.41C46.3572 8.00267 45.7982 7.799 45.1308 7.799ZM61.767 10.49C61.7843 11.5387 61.403 12.4487 60.623 13.22C59.8516 13.9913 58.946 14.3683 57.906 14.351C56.8573 14.3683 55.9473 13.9913 55.176 13.22C54.4046 12.4487 54.0276 11.5387 54.045 10.49C54.0276 9.45 54.4046 8.54433 55.176 7.773C55.9473 6.993 56.8573 6.61167 57.906 6.629C58.946 6.61167 59.8516 6.993 60.623 7.773C61.403 8.54433 61.7843 9.45 61.767 10.49ZM56.008 8.592C55.4793 9.12067 55.215 9.75333 55.215 10.49C55.215 11.2267 55.4793 11.8593 56.008 12.388C56.5366 12.9167 57.1693 13.181 57.906 13.181C58.6426 13.181 59.2753 12.9167 59.804 12.388C60.3326 11.8593 60.597 11.2267 60.597 10.49C60.597 9.75333 60.3326 9.12067 59.804 8.592C59.2753 8.06333 58.6426 7.799 57.906 7.799C57.1693 7.799 56.5366 8.06333 56.008 8.592ZM63.1527 10.867V6.98H64.3227V10.932C64.3227 12.4227 64.9727 13.168 66.2727 13.168C66.862 13.168 67.369 12.9903 67.7937 12.635C68.227 12.271 68.4437 11.7813 68.4437 11.166V6.98H69.6137V14H68.4437V13.428C68.2877 13.636 67.9887 13.8397 67.5467 14.039C67.1047 14.2383 66.6887 14.338 66.2987 14.338C65.25 14.338 64.4613 14.065 63.9327 13.519C63.4127 12.9643 63.1527 12.0803 63.1527 10.867ZM75.6962 7.045L75.0592 8.228C74.7558 7.95933 74.4048 7.825 74.0062 7.825C73.6508 7.825 73.3302 8.02 73.0442 8.41C72.7668 8.79133 72.6282 9.22467 72.6282 9.71V14H71.4582V6.98H72.6282V7.552C72.7928 7.30067 73.0355 7.08833 73.3562 6.915C73.6855 6.733 74.0192 6.642 74.3572 6.642C74.8945 6.642 75.3408 6.77633 75.6962 7.045Z" fill="white"/>
<path d="M90.2571 6.98H91.5051L88.9831 14H87.8131L86.0451 8.813L84.2901 14H83.1201L80.6111 6.98H81.8591L83.7051 12.206L85.4341 6.98H86.6821L88.3981 12.206L90.2571 6.98ZM95.7353 14.351C94.6693 14.3683 93.7636 13.9957 93.0183 13.233C92.2816 12.4703 91.9219 11.556 91.9393 10.49C91.9219 9.44133 92.2859 8.53133 93.0312 7.76C93.7853 6.98 94.6693 6.603 95.6833 6.629C96.7059 6.629 97.5639 6.967 98.2573 7.643C98.9593 8.319 99.3103 9.18133 99.3103 10.23C99.3103 10.5593 99.2669 10.8583 99.1803 11.127H93.1353C93.2133 11.6123 93.5166 12.0803 94.0453 12.531C94.5826 12.9817 95.1459 13.1983 95.7353 13.181C96.1599 13.181 96.5716 13.0857 96.9703 12.895C97.3776 12.6957 97.6896 12.4443 97.9062 12.141L98.9723 12.674C98.1403 13.792 97.0613 14.351 95.7353 14.351ZM95.6963 7.799C94.9943 7.799 94.4179 7.99833 93.9673 8.397C93.5253 8.79567 93.2523 9.31567 93.1483 9.957H98.1013C98.0666 9.333 97.8239 8.81733 97.3733 8.41C96.9226 8.00267 96.3636 7.799 95.6963 7.799ZM104.205 6.642C105.279 6.642 106.142 7.00167 106.792 7.721C107.45 8.44033 107.78 9.35467 107.78 10.464C107.788 11.556 107.442 12.4833 106.74 13.246C106.046 14 105.206 14.3683 104.218 14.351C103.715 14.351 103.247 14.2513 102.814 14.052C102.389 13.8613 102.086 13.6273 101.904 13.35V14H100.734V4.64H101.904V7.552C102.051 7.344 102.363 7.14033 102.84 6.941C103.325 6.74167 103.78 6.642 104.205 6.642ZM101.904 10.503C101.904 11.4303 102.133 12.1107 102.593 12.544C103.043 12.9687 103.594 13.181 104.244 13.181C104.946 13.1983 105.518 12.921 105.96 12.349C106.41 11.777 106.627 11.1617 106.61 10.503C106.61 9.775 106.397 9.14667 105.973 8.618C105.548 8.08067 104.972 7.812 104.244 7.812C103.542 7.812 102.974 8.046 102.541 8.514C102.116 8.97333 101.904 9.63633 101.904 10.503ZM111.942 13.181C112.523 13.181 112.982 13.0813 113.32 12.882C113.658 12.674 113.827 12.375 113.827 11.985C113.827 11.6643 113.675 11.439 113.372 11.309C113.086 11.1703 112.778 11.075 112.449 11.023L111.864 10.919C110.867 10.737 110.17 10.4987 109.771 10.204C109.372 9.90933 109.173 9.46733 109.173 8.878C109.173 8.23667 109.429 7.70367 109.94 7.279C110.46 6.84567 111.106 6.629 111.877 6.629C112.475 6.629 112.982 6.72 113.398 6.902C113.823 7.084 114.243 7.37433 114.659 7.773L113.84 8.54C113.294 8.046 112.674 7.799 111.981 7.799C111.539 7.799 111.158 7.88133 110.837 8.046C110.508 8.21933 110.343 8.48367 110.343 8.839C110.343 9.09033 110.464 9.28533 110.707 9.424C110.958 9.554 111.366 9.66233 111.929 9.749C112.596 9.86167 113.129 9.97867 113.528 10.1C114.507 10.4033 114.997 11.0663 114.997 12.089C114.997 12.7303 114.72 13.2677 114.165 13.701C113.61 14.1343 112.869 14.351 111.942 14.351C110.729 14.351 109.719 13.8613 108.913 12.882L109.823 12.115C109.962 12.297 110.118 12.4747 110.291 12.648C110.664 13.0033 111.214 13.181 111.942 13.181ZM117.723 5.81H116.553V4.64H117.723V5.81ZM117.723 14H116.553V6.98H117.723V14ZM121.756 14.351C121.236 14.351 120.829 14.169 120.534 13.805C120.24 13.4323 120.092 12.9167 120.092 12.258V8.15H119.156V6.98H120.092V4.64H121.262V6.98H122.692V8.15H121.262V12.232C121.262 12.778 121.479 13.051 121.912 13.051C122.138 13.051 122.376 13.0077 122.627 12.921L122.887 14.091C122.471 14.2643 122.094 14.351 121.756 14.351ZM127.613 14.351C126.547 14.3683 125.642 13.9957 124.896 13.233C124.16 12.4703 123.8 11.556 123.817 10.49C123.8 9.44133 124.164 8.53133 124.909 7.76C125.663 6.98 126.547 6.603 127.561 6.629C128.584 6.629 129.442 6.967 130.135 7.643C130.837 8.319 131.188 9.18133 131.188 10.23C131.188 10.5593 131.145 10.8583 131.058 11.127H125.013C125.091 11.6123 125.395 12.0803 125.923 12.531C126.461 12.9817 127.024 13.1983 127.613 13.181C128.038 13.181 128.45 13.0857 128.848 12.895C129.256 12.6957 129.568 12.4443 129.784 12.141L130.85 12.674C130.018 13.792 128.939 14.351 127.613 14.351ZM127.574 7.799C126.872 7.799 126.296 7.99833 125.845 8.397C125.403 8.79567 125.13 9.31567 125.026 9.957H129.979C129.945 9.333 129.702 8.81733 129.251 8.41C128.801 8.00267 128.242 7.799 127.574 7.799Z" fill="#ED5118"/>
<path d="M80.2471 16.6H131.682V17.25H80.2471V16.6Z" fill="#ED5118"/>
<path d="M136.577 14.8135L143.299 8.09222L143.227 12.8987L144.511 12.8796L144.615 5.88098L137.617 5.98527L137.598 7.26929L142.404 7.19767L135.683 13.919L136.577 14.8135Z" fill="#F05315"/>
</svg>
