<svg width="355" height="26" viewBox="0 0 355 26" fill="none" xmlns="http://www.w3.org/2000/svg">
<g clip-path="url(#clip0_857_134)">
<rect width="355" height="26" fill="#0D1117"/>
<mask id="mask0_857_134" style="mask-type:alpha" maskUnits="userSpaceOnUse" x="0" y="-475" width="1660" height="654">
<path d="M0 -472.367C0 -473.472 0.895431 -474.367 2 -474.367H1660V179H2.00005C0.895479 179 0 178.105 0 177V-472.367Z" fill="white"/>
</mask>
<g mask="url(#mask0_857_134)">
<rect opacity="0.2" y="-474.367" width="1660" height="652.911" fill="url(#paint0_linear_857_134)"/>
</g>
<path d="M63.878 2.99H54.455V9.065H62.663V11.495H54.455V17.57H63.932V20H52.025V0.559999H63.878V2.99ZM75.2169 12.602L80.8059 20H77.8359L73.7319 14.627L69.5469 20H66.5769L72.1659 12.764L66.5769 5.42H69.5739L73.6779 10.739L77.8089 5.42H80.7789L75.2169 12.602ZM85.9349 18.812V26.318H83.5049V5.42H85.9349V6.743C86.2949 6.203 86.9159 5.735 87.7979 5.339C88.6799 4.907 89.6609 4.691 90.7409 4.691C92.7929 4.655 94.5389 5.429 95.9789 7.013C97.4369 8.579 98.1569 10.496 98.1389 12.764C98.1389 15.068 97.4549 16.967 96.0869 18.461C94.7369 19.955 92.9459 20.702 90.7139 20.702C89.8319 20.702 88.8869 20.495 87.8789 20.081C86.8889 19.667 86.2409 19.244 85.9349 18.812ZM95.7089 12.683C95.7449 11.315 95.2949 10.037 94.3589 8.849C93.4409 7.661 92.2529 7.085 90.7949 7.121C89.4449 7.121 88.3019 7.562 87.3659 8.444C86.4119 9.344 85.9349 10.757 85.9349 12.683C85.9349 14.483 86.3759 15.869 87.2579 16.841C88.1579 17.795 89.3369 18.272 90.7949 18.272C92.3069 18.272 93.5039 17.723 94.3859 16.625C95.2679 15.509 95.7089 14.195 95.7089 12.683ZM103.92 20H101.49V0.559999H103.92V20ZM123.178 12.71C123.214 14.888 122.422 16.778 120.802 18.38C119.2 19.982 117.319 20.765 115.159 20.729C112.981 20.765 111.091 19.982 109.489 18.38C107.887 16.778 107.104 14.888 107.14 12.71C107.104 10.55 107.887 8.669 109.489 7.067C111.091 5.447 112.981 4.655 115.159 4.691C117.319 4.655 119.2 5.447 120.802 7.067C122.422 8.669 123.214 10.55 123.178 12.71ZM111.217 8.768C110.119 9.866 109.57 11.18 109.57 12.71C109.57 14.24 110.119 15.554 111.217 16.652C112.315 17.75 113.629 18.299 115.159 18.299C116.689 18.299 118.003 17.75 119.101 16.652C120.199 15.554 120.748 14.24 120.748 12.71C120.748 11.18 120.199 9.866 119.101 8.768C118.003 7.67 116.689 7.121 115.159 7.121C113.629 7.121 112.315 7.67 111.217 8.768ZM135.101 5.555L133.778 8.012C133.148 7.454 132.419 7.175 131.591 7.175C130.853 7.175 130.187 7.58 129.593 8.39C129.017 9.182 128.729 10.082 128.729 11.09V20H126.299V5.42H128.729V6.608C129.071 6.086 129.575 5.645 130.241 5.285C130.925 4.907 131.618 4.718 132.32 4.718C133.436 4.718 134.363 4.997 135.101 5.555ZM143.814 20.729C141.6 20.765 139.719 19.991 138.171 18.407C136.641 16.823 135.894 14.924 135.93 12.71C135.894 10.532 136.65 8.642 138.198 7.04C139.764 5.42 141.6 4.637 143.706 4.691C145.83 4.691 147.612 5.393 149.052 6.797C150.51 8.201 151.239 9.992 151.239 12.17C151.239 12.854 151.149 13.475 150.969 14.033H138.414C138.576 15.041 139.206 16.013 140.304 16.949C141.42 17.885 142.59 18.335 143.814 18.299C144.696 18.299 145.551 18.101 146.379 17.705C147.225 17.291 147.873 16.769 148.323 16.139L150.537 17.246C148.809 19.568 146.568 20.729 143.814 20.729ZM143.733 7.121C142.275 7.121 141.078 7.535 140.142 8.363C139.224 9.191 138.657 10.271 138.441 11.603H148.728C148.656 10.307 148.152 9.236 147.216 8.39C146.28 7.544 145.119 7.121 143.733 7.121ZM178.285 12.71C178.321 14.888 177.529 16.778 175.909 18.38C174.307 19.982 172.426 20.765 170.266 20.729C168.088 20.765 166.198 19.982 164.596 18.38C162.994 16.778 162.211 14.888 162.247 12.71C162.211 10.55 162.994 8.669 164.596 7.067C166.198 5.447 168.088 4.655 170.266 4.691C172.426 4.655 174.307 5.447 175.909 7.067C177.529 8.669 178.321 10.55 178.285 12.71ZM166.324 8.768C165.226 9.866 164.677 11.18 164.677 12.71C164.677 14.24 165.226 15.554 166.324 16.652C167.422 17.75 168.736 18.299 170.266 18.299C171.796 18.299 173.11 17.75 174.208 16.652C175.306 15.554 175.855 14.24 175.855 12.71C175.855 11.18 175.306 9.866 174.208 8.768C173.11 7.67 171.796 7.121 170.266 7.121C168.736 7.121 167.422 7.67 166.324 8.768ZM181.163 13.493V5.42H183.593V13.628C183.593 16.724 184.943 18.272 187.643 18.272C188.867 18.272 189.92 17.903 190.802 17.165C191.702 16.409 192.152 15.392 192.152 14.114V5.42H194.582V20H192.152V18.812C191.828 19.244 191.207 19.667 190.289 20.081C189.371 20.495 188.507 20.702 187.697 20.702C185.519 20.702 183.881 20.135 182.783 19.001C181.703 17.849 181.163 16.013 181.163 13.493ZM207.215 5.555L205.892 8.012C205.262 7.454 204.533 7.175 203.705 7.175C202.967 7.175 202.301 7.58 201.707 8.39C201.131 9.182 200.843 10.082 200.843 11.09V20H198.413V5.42H200.843V6.608C201.185 6.086 201.689 5.645 202.355 5.285C203.039 4.907 203.732 4.718 204.434 4.718C205.55 4.718 206.477 4.997 207.215 5.555Z" fill="white"/>
<path d="M237.457 5.42H240.049L234.811 20H232.381L228.709 9.227L225.064 20H222.634L217.423 5.42H220.015L223.849 16.274L227.44 5.42H230.032L233.596 16.274L237.457 5.42ZM248.835 20.729C246.621 20.765 244.74 19.991 243.192 18.407C241.662 16.823 240.915 14.924 240.951 12.71C240.915 10.532 241.671 8.642 243.219 7.04C244.785 5.42 246.621 4.637 248.727 4.691C250.851 4.691 252.633 5.393 254.073 6.797C255.531 8.201 256.26 9.992 256.26 12.17C256.26 12.854 256.17 13.475 255.99 14.033H243.435C243.597 15.041 244.227 16.013 245.325 16.949C246.441 17.885 247.611 18.335 248.835 18.299C249.717 18.299 250.572 18.101 251.4 17.705C252.246 17.291 252.894 16.769 253.344 16.139L255.558 17.246C253.83 19.568 251.589 20.729 248.835 20.729ZM248.754 7.121C247.296 7.121 246.099 7.535 245.163 8.363C244.245 9.191 243.678 10.271 243.462 11.603H253.749C253.677 10.307 253.173 9.236 252.237 8.39C251.301 7.544 250.14 7.121 248.754 7.121ZM266.425 4.718C268.657 4.718 270.448 5.465 271.798 6.959C273.166 8.453 273.85 10.352 273.85 12.656C273.868 14.924 273.148 16.85 271.69 18.434C270.25 20 268.504 20.765 266.452 20.729C265.408 20.729 264.436 20.522 263.536 20.108C262.654 19.712 262.024 19.226 261.646 18.65V20H259.216V0.559999H261.646V6.608C261.952 6.176 262.6 5.753 263.59 5.339C264.598 4.925 265.543 4.718 266.425 4.718ZM261.646 12.737C261.646 14.663 262.123 16.076 263.077 16.976C264.013 17.858 265.156 18.299 266.506 18.299C267.964 18.335 269.152 17.759 270.07 16.571C271.006 15.383 271.456 14.105 271.42 12.737C271.42 11.225 270.979 9.92 270.097 8.822C269.215 7.706 268.018 7.148 266.506 7.148C265.048 7.148 263.869 7.634 262.969 8.606C262.087 9.56 261.646 10.937 261.646 12.737ZM282.495 18.299C283.701 18.299 284.655 18.092 285.357 17.678C286.059 17.246 286.41 16.625 286.41 15.815C286.41 15.149 286.095 14.681 285.465 14.411C284.871 14.123 284.232 13.925 283.548 13.817L282.333 13.601C280.263 13.223 278.814 12.728 277.986 12.116C277.158 11.504 276.744 10.586 276.744 9.362C276.744 8.03 277.275 6.923 278.337 6.041C279.417 5.141 280.758 4.691 282.36 4.691C283.602 4.691 284.655 4.88 285.519 5.258C286.401 5.636 287.274 6.239 288.138 7.067L286.437 8.66C285.303 7.634 284.016 7.121 282.576 7.121C281.658 7.121 280.866 7.292 280.2 7.634C279.516 7.994 279.174 8.543 279.174 9.281C279.174 9.803 279.426 10.208 279.93 10.496C280.452 10.766 281.298 10.991 282.468 11.171C283.854 11.405 284.961 11.648 285.789 11.9C287.823 12.53 288.84 13.907 288.84 16.031C288.84 17.363 288.264 18.479 287.112 19.379C285.96 20.279 284.421 20.729 282.495 20.729C279.975 20.729 277.878 19.712 276.204 17.678L278.094 16.085C278.382 16.463 278.706 16.832 279.066 17.192C279.84 17.93 280.983 18.299 282.495 18.299ZM294.502 2.99H292.072V0.559999H294.502V2.99ZM294.502 20H292.072V5.42H294.502V20ZM302.879 20.729C301.799 20.729 300.953 20.351 300.341 19.595C299.729 18.821 299.423 17.75 299.423 16.382V7.85H297.479V5.42H299.423V0.559999H301.853V5.42H304.823V7.85H301.853V16.328C301.853 17.462 302.303 18.029 303.203 18.029C303.671 18.029 304.166 17.939 304.688 17.759L305.228 20.189C304.364 20.549 303.581 20.729 302.879 20.729ZM315.043 20.729C312.829 20.765 310.948 19.991 309.4 18.407C307.87 16.823 307.123 14.924 307.159 12.71C307.123 10.532 307.879 8.642 309.427 7.04C310.993 5.42 312.829 4.637 314.935 4.691C317.059 4.691 318.841 5.393 320.281 6.797C321.739 8.201 322.468 9.992 322.468 12.17C322.468 12.854 322.378 13.475 322.198 14.033H309.643C309.805 15.041 310.435 16.013 311.533 16.949C312.649 17.885 313.819 18.335 315.043 18.299C315.925 18.299 316.78 18.101 317.608 17.705C318.454 17.291 319.102 16.769 319.552 16.139L321.766 17.246C320.038 19.568 317.797 20.729 315.043 20.729ZM314.962 7.121C313.504 7.121 312.307 7.535 311.371 8.363C310.453 9.191 309.886 10.271 309.67 11.603H319.957C319.885 10.307 319.381 9.236 318.445 8.39C317.509 7.544 316.348 7.121 314.962 7.121Z" fill="#ED5118"/>
<path d="M337.084 23.096L351.647 8.53314L351.492 18.9472L354.274 18.9057L354.5 3.74212L339.336 3.96808L339.295 6.75013L349.709 6.59495L335.146 21.1578L337.084 23.096Z" fill="#F05315"/>
</g>
<defs>
<linearGradient id="paint0_linear_857_134" x1="766.806" y1="178.544" x2="755.45" y2="-424.388" gradientUnits="userSpaceOnUse">
<stop stop-color="#3A8EF0"/>
<stop offset="0.709145" stop-color="#3A8EF0" stop-opacity="0.411856"/>
<stop offset="0.91176" stop-color="#3A8EF0" stop-opacity="0"/>
</linearGradient>
<clipPath id="clip0_857_134">
<rect width="355" height="26" fill="white"/>
</clipPath>
</defs>
</svg>
