<svg width="55" height="55" viewBox="0 0 55 55" fill="none" xmlns="http://www.w3.org/2000/svg">
<path fill-rule="evenodd" clip-rule="evenodd" d="M5.4375 49.5625V5.4375H49.5625V49.5625H5.4375ZM3.4375 4.4375C3.4375 3.88521 3.88522 3.4375 4.4375 3.4375H50.5625C51.1148 3.4375 51.5625 3.88522 51.5625 4.4375V50.5625C51.5625 51.1148 51.1148 51.5625 50.5625 51.5625H4.4375C3.88521 51.5625 3.4375 51.1148 3.4375 50.5625V4.4375ZM42.8336 16.5219C42.6708 16.8919 42.4354 17.2255 42.1414 17.5028C41.5695 18.0423 40.8099 18.3377 40.0238 18.3262C39.2377 18.3147 38.4871 17.9974 37.9312 17.4415C37.3753 16.8856 37.0579 16.1349 37.0464 15.3488C37.035 14.5627 37.3303 13.8031 37.8698 13.2313C38.1472 12.9372 38.4807 12.7018 38.8507 12.539C39.2207 12.3762 39.6196 12.2892 40.0238 12.2833C40.428 12.2774 40.8293 12.3527 41.2038 12.5047C41.5784 12.6567 41.9187 12.8822 42.2046 13.1681C42.4904 13.4539 42.716 13.7942 42.8679 14.1688C43.0199 14.5434 43.0952 14.9446 43.0893 15.3488C43.0834 15.753 42.9965 16.1519 42.8336 16.5219ZM21.6385 16.5725C20.0881 17.2147 18.6794 18.156 17.4928 19.3426C15.0963 21.739 13.75 24.9893 13.75 28.3784C13.75 31.7675 15.0963 35.0178 17.4928 37.4143C19.8892 39.8107 23.1395 41.157 26.5286 41.157C29.9177 41.157 33.168 39.8107 35.5645 37.4143C36.7511 36.2277 37.6924 34.819 38.3345 33.2686C38.9767 31.7182 39.3073 30.0565 39.3073 28.3784C39.3073 26.7003 38.9767 25.0386 38.3345 23.4882C37.6924 21.9379 36.7511 20.5292 35.5645 19.3426C34.3779 18.156 32.9692 17.2147 31.4188 16.5725C29.8684 15.9303 28.2067 15.5998 26.5286 15.5998C24.8505 15.5998 23.1888 15.9303 21.6385 16.5725ZM34.375 28.3594C34.375 32.631 30.9122 36.0938 26.6406 36.0938C22.369 36.0938 18.9062 32.631 18.9062 28.3594C18.9062 24.0878 22.369 20.625 26.6406 20.625C30.9122 20.625 34.375 24.0878 34.375 28.3594Z" fill="#A1A3A7"/>
</svg>
