<svg width="21" height="21" viewBox="0 0 21 21" fill="none" xmlns="http://www.w3.org/2000/svg">
<rect x="0.332031" y="0.167969" width="20.6667" height="20.6667" rx="4" fill="#0D1117"/>
<path d="M7.56637 8.3125H5.48735C5.39508 8.3125 5.32031 8.3873 5.32031 8.47954V15.1585C5.32031 15.2508 5.39508 15.3256 5.48735 15.3256H7.56637C7.65864 15.3256 7.73341 15.2508 7.73341 15.1585V8.47954C7.73341 8.3873 7.65864 8.3125 7.56637 8.3125Z" fill="#EFF1F5"/>
<path d="M6.52814 4.99219C5.77168 4.99219 5.15625 5.60694 5.15625 6.36258C5.15625 7.11855 5.77168 7.73354 6.52814 7.73354C7.28401 7.73354 7.89894 7.11851 7.89894 6.36258C7.89897 5.60694 7.28401 4.99219 6.52814 4.99219Z" fill="#EFF1F5"/>
<path d="M12.8549 8.14453C12.0199 8.14453 11.4026 8.50349 11.0282 8.91136V8.47757C11.0282 8.38533 10.9535 8.31053 10.8612 8.31053H8.87016C8.77789 8.31053 8.70312 8.38533 8.70312 8.47757V15.1566C8.70312 15.2488 8.77789 15.3236 8.87016 15.3236H10.9446C11.0369 15.3236 11.1117 15.2488 11.1117 15.1566V11.852C11.1117 10.7385 11.4141 10.3046 12.1904 10.3046C13.0358 10.3046 13.103 11.0001 13.103 11.9093V15.1566C13.103 15.2489 13.1777 15.3236 13.27 15.3236H15.3453C15.4375 15.3236 15.5123 15.2489 15.5123 15.1566V11.4931C15.5123 9.83723 15.1966 8.14453 12.8549 8.14453Z" fill="#EFF1F5"/>
</svg>
