<svg width="55" height="55" viewBox="0 0 55 55" fill="none" xmlns="http://www.w3.org/2000/svg">
<path fill-rule="evenodd" clip-rule="evenodd" d="M5.4375 5.4375V49.5625H49.5625V5.4375H5.4375ZM4.4375 3.4375C3.88522 3.4375 3.4375 3.88521 3.4375 4.4375V50.5625C3.4375 51.1148 3.88521 51.5625 4.4375 51.5625H50.5625C51.1148 51.5625 51.5625 51.1148 51.5625 50.5625V4.4375C51.5625 3.88522 51.1148 3.4375 50.5625 3.4375H4.4375Z" fill="#A1A3A7"/>
<path d="M20.1924 22.5H14.8076C14.5686 22.5 14.375 22.7 14.375 22.9466V40.8034C14.375 41.0501 14.5686 41.25 14.8076 41.25H20.1924C20.4314 41.25 20.625 41.0501 20.625 40.8034V22.9466C20.625 22.7 20.4314 22.5 20.1924 22.5Z" fill="#A1A3A7"/>
<path d="M16.8765 13.75C14.8079 13.75 13.125 15.4319 13.125 17.4992C13.125 19.5675 14.8079 21.25 16.8765 21.25C18.9435 21.25 20.625 19.5674 20.625 17.4992C20.6251 15.4319 18.9435 13.75 16.8765 13.75Z" fill="#A1A3A7"/>
<path d="M34.3136 21.875C31.9376 21.875 30.1812 22.8438 29.1159 23.9445V22.7738C29.1159 22.5249 28.9032 22.323 28.6406 22.323H22.9753C22.7127 22.323 22.5 22.5249 22.5 22.7738V40.7991C22.5 41.0481 22.7127 41.2499 22.9753 41.2499H28.8781C29.1406 41.2499 29.3534 41.0481 29.3534 40.7991V31.8808C29.3534 28.8755 30.214 27.7047 32.4228 27.7047C34.8283 27.7047 35.0195 29.5816 35.0195 32.0354V40.7992C35.0195 41.0482 35.2322 41.25 35.4947 41.25H41.3997C41.6623 41.25 41.875 41.0482 41.875 40.7992V30.912C41.875 26.4433 40.9766 21.875 34.3136 21.875Z" fill="#A1A3A7"/>
</svg>
