<svg width="84" height="53" viewBox="0 0 84 53" fill="none" xmlns="http://www.w3.org/2000/svg">
<g clip-path="url(#clip0_857_464)">
<rect width="84" height="53" fill="#0D1117"/>
<mask id="mask0_857_464" style="mask-type:alpha" maskUnits="userSpaceOnUse" x="-201" y="-539" width="1660" height="654">
<path d="M-201 -536.367C-201 -537.472 -200.105 -538.367 -199 -538.367H1459V115H-199C-200.105 115 -201 114.105 -201 113V-536.367Z" fill="white"/>
</mask>
<g mask="url(#mask0_857_464)">
<rect opacity="0.2" x="-201" y="-538.367" width="1660" height="652.911" fill="url(#paint0_linear_857_464)"/>
</g>
<rect x="17.6016" y="1.42188" width="50.5794" height="50.5794" rx="4" fill="#0D1117"/>
<rect x="30.1055" y="13.25" width="26.9212" height="26.9212" rx="3" fill="#EFF1F5"/>
<path d="M51.2009 18.73C52.0389 18.73 52.7183 18.0506 52.7183 17.2126C52.7183 16.3746 52.0389 15.6953 51.2009 15.6953C50.3629 15.6953 49.6836 16.3746 49.6836 17.2126C49.6836 18.0506 50.3629 18.73 51.2009 18.73Z" fill="#141824"/>
<circle cx="43.5677" cy="26.7122" r="6.61845" stroke="#141824"/>
</g>
<defs>
<linearGradient id="paint0_linear_857_464" x1="565.806" y1="114.544" x2="554.45" y2="-488.388" gradientUnits="userSpaceOnUse">
<stop stop-color="#3A8EF0"/>
<stop offset="0.709145" stop-color="#3A8EF0" stop-opacity="0.411856"/>
<stop offset="0.91176" stop-color="#3A8EF0" stop-opacity="0"/>
</linearGradient>
<clipPath id="clip0_857_464">
<rect width="84" height="53" fill="white"/>
</clipPath>
</defs>
</svg>
