<svg width="83" height="53" viewBox="0 0 83 53" fill="none" xmlns="http://www.w3.org/2000/svg">
<g clip-path="url(#clip0_857_530)">
<rect width="83" height="53" fill="#0D1117"/>
<mask id="mask0_857_530" style="mask-type:alpha" maskUnits="userSpaceOnUse" x="-285" y="-539" width="1660" height="654">
<path d="M-285 -536.367C-285 -537.472 -284.105 -538.367 -283 -538.367H1375V115H-283C-284.105 115 -285 114.105 -285 113V-536.367Z" fill="white"/>
</mask>
<g mask="url(#mask0_857_530)">
<rect opacity="0.2" x="-285" y="-538.367" width="1660" height="652.911" fill="url(#paint0_linear_857_530)"/>
</g>
<rect x="17.8945" y="1.42188" width="50.5794" height="50.5794" rx="4" fill="#0D1117"/>
<path d="M35.6024 21.3516H30.5143C30.2884 21.3516 30.1055 21.5346 30.1055 21.7604V38.1064C30.1055 38.3323 30.2884 38.5152 30.5143 38.5152H35.6024C35.8282 38.5152 36.0112 38.3323 36.0112 38.1064V21.7604C36.0112 21.5346 35.8282 21.3516 35.6024 21.3516Z" fill="#EFF1F5"/>
<path d="M33.0607 13.2266C31.2093 13.2266 29.7031 14.7311 29.7031 16.5804C29.7031 18.4306 31.2093 19.9357 33.0607 19.9357C34.9106 19.9357 36.4155 18.4305 36.4155 16.5804C36.4156 14.7311 34.9106 13.2266 33.0607 13.2266Z" fill="#EFF1F5"/>
<path d="M48.5438 20.9453C46.5002 20.9453 44.9895 21.8238 44.0732 22.822V21.7604C44.0732 21.5346 43.8902 21.3516 43.6644 21.3516H38.7916C38.5658 21.3516 38.3828 21.5346 38.3828 21.7604V38.1065C38.3828 38.3323 38.5658 38.5153 38.7916 38.5153H43.8687C44.0945 38.5153 44.2775 38.3323 44.2775 38.1065V30.0189C44.2775 27.2936 45.0177 26.2319 46.9175 26.2319C48.9865 26.2319 49.1509 27.934 49.1509 30.1592V38.1065C49.1509 38.3324 49.3339 38.5153 49.5597 38.5153H54.6386C54.8645 38.5153 55.0474 38.3324 55.0474 38.1065V29.1404C55.0474 25.088 54.2747 20.9453 48.5438 20.9453Z" fill="#EFF1F5"/>
</g>
<defs>
<linearGradient id="paint0_linear_857_530" x1="481.806" y1="114.544" x2="470.45" y2="-488.388" gradientUnits="userSpaceOnUse">
<stop stop-color="#3A8EF0"/>
<stop offset="0.709145" stop-color="#3A8EF0" stop-opacity="0.411856"/>
<stop offset="0.91176" stop-color="#3A8EF0" stop-opacity="0"/>
</linearGradient>
<clipPath id="clip0_857_530">
<rect width="83" height="53" fill="white"/>
</clipPath>
</defs>
</svg>
