<svg width="118" height="53" viewBox="0 0 118 53" fill="none" xmlns="http://www.w3.org/2000/svg">
<g clip-path="url(#clip0_857_332)">
<rect width="118" height="53" fill="#0D1117"/>
<mask id="mask0_857_332" style="mask-type:alpha" maskUnits="userSpaceOnUse" x="0" y="-539" width="1660" height="654">
<path d="M0 -536.367C0 -537.472 0.895431 -538.367 2 -538.367H1660V115H2.00005C0.895479 115 0 114.105 0 113V-536.367Z" fill="white"/>
</mask>
<g mask="url(#mask0_857_332)">
<rect opacity="0.2" y="-538.367" width="1660" height="652.911" fill="url(#paint0_linear_857_332)"/>
</g>
<rect x="50" y="1" width="50.5794" height="50.5794" rx="4" fill="#0D1117"/>
<path d="M62.7136 13.2344L72.4881 27.0238L62.2383 38.5158H64.4231L73.4563 28.3882L80.635 38.5158H87.5197L77.2914 24.0871L86.9719 13.2344H84.7884L76.3246 22.7227L69.5983 13.2344H62.7136Z" fill="#EFF1F5"/>
</g>
<defs>
<linearGradient id="paint0_linear_857_332" x1="766.806" y1="114.544" x2="755.45" y2="-488.388" gradientUnits="userSpaceOnUse">
<stop stop-color="#3A8EF0"/>
<stop offset="0.709145" stop-color="#3A8EF0" stop-opacity="0.411856"/>
<stop offset="0.91176" stop-color="#3A8EF0" stop-opacity="0"/>
</linearGradient>
<clipPath id="clip0_857_332">
<rect width="118" height="53" fill="white"/>
</clipPath>
</defs>
</svg>
