<svg width="55" height="55" viewBox="0 0 55 55" fill="none" xmlns="http://www.w3.org/2000/svg">
<path fill-rule="evenodd" clip-rule="evenodd" d="M5.4375 5.4375V49.5625H49.5625V5.4375H5.4375ZM4.4375 3.4375C3.88522 3.4375 3.4375 3.88521 3.4375 4.4375V50.5625C3.4375 51.1148 3.88521 51.5625 4.4375 51.5625H50.5625C51.1148 51.5625 51.5625 51.1148 51.5625 50.5625V4.4375C51.5625 3.88522 51.1148 3.4375 50.5625 3.4375H4.4375Z" fill="#A1A3A7"/>
<path d="M31.6002 25.4766C31.6718 26.18 31.7127 26.8609 31.7127 27.498C31.7127 28.6908 31.5691 30.0377 31.3492 31.3994C29.9917 31.62 28.649 31.7641 27.4599 31.7641C26.2762 31.7641 24.934 31.6204 23.5705 31.399C23.3507 30.0373 23.207 28.6907 23.207 27.498C23.207 26.8611 23.248 26.1801 23.3197 25.4766C24.7506 25.7064 26.1781 25.8572 27.4599 25.8572C28.7418 25.8572 30.1693 25.7064 31.6002 25.4766Z" fill="#A1A3A7"/>
<path d="M33.5382 25.1216C33.6267 25.9449 33.6781 26.7464 33.6781 27.4976C33.6781 28.594 33.5687 29.7966 33.3945 31.0171C35.8652 30.4999 38.1491 29.8393 39.3725 29.4632C39.7679 29.3415 39.9231 29.2932 40.1316 29.2096C40.2357 29.1678 40.3313 29.1253 40.4557 29.0656C40.5167 28.5516 40.5481 28.0282 40.5481 27.4976C40.5481 26.095 40.3288 24.7438 39.9227 23.4766L39.8169 23.51C38.5377 23.9003 36.1428 24.5905 33.5382 25.1216Z" fill="#A1A3A7"/>
<path d="M39.1798 21.6504C37.8937 22.0413 35.6619 22.6766 33.2702 23.1712C32.7193 19.8124 31.7536 16.4624 31.2891 14.9453C34.7437 16.0033 37.5915 18.4565 39.1798 21.6504Z" fill="#A1A3A7"/>
<path d="M31.3339 23.5288C29.9801 23.7482 28.6415 23.8916 27.4559 23.8916C26.2704 23.8916 24.932 23.7482 23.5781 23.5288C24.0969 20.3507 25.023 17.1041 25.4965 15.5543C25.6178 15.1577 25.666 15.0019 25.7493 14.7928C25.7909 14.6883 25.8333 14.5925 25.8929 14.4677C26.4053 14.4065 26.927 14.375 27.4559 14.375C28.0086 14.375 28.5531 14.4094 29.0876 14.4761C29.099 14.5196 29.1095 14.5585 29.1198 14.5953C29.1504 14.7042 29.1984 14.8572 29.2789 15.1139L29.2874 15.1408C29.6911 16.428 30.7609 20.0181 31.3339 23.5288Z" fill="#A1A3A7"/>
<path d="M21.6516 23.1712C22.2 19.8272 23.1593 16.4952 23.623 14.9776L23.6329 14.9453C20.1782 16.0033 17.3304 18.4565 15.7422 21.6504C17.0281 22.0413 19.2599 22.6766 21.6516 23.1712Z" fill="#A1A3A7"/>
<path d="M15.0004 23.4766C14.5943 24.7438 14.375 26.095 14.375 27.4977C14.375 28.0463 14.4086 28.5872 14.4737 29.1182L14.68 29.1872L14.6816 29.1877L14.6836 29.1883L14.6851 29.1889C14.7514 29.2109 16.6969 29.8554 19.2588 30.4948C19.9817 30.6752 20.7472 30.8535 21.5286 31.017C21.3544 29.7965 21.245 28.5938 21.245 27.4977C21.245 26.7462 21.2964 25.9447 21.3849 25.1217C18.7796 24.5903 16.3842 23.8999 15.1053 23.5096L15.0964 23.5069L15.0004 23.4766Z" fill="#A1A3A7"/>
<path d="M27.4616 33.7376C28.5545 33.7376 29.7534 33.6278 30.9702 33.4531C30.4546 35.9315 29.796 38.2225 29.4211 39.4496C29.2999 39.8462 29.2516 40.002 29.1683 40.2111C29.1266 40.3156 29.0842 40.4114 29.0247 40.5362C28.5123 40.5974 27.9905 40.6289 27.4616 40.6289C26.9327 40.6289 26.411 40.5974 25.8985 40.5362C25.839 40.4114 25.7966 40.3156 25.755 40.2111C25.6716 40.002 25.6235 39.8463 25.5022 39.4496C25.1273 38.2226 24.4687 35.9318 23.9531 33.4535C25.1659 33.6277 26.365 33.7376 27.4616 33.7376Z" fill="#A1A3A7"/>
<path d="M18.787 32.4056C17.1668 32.0013 15.787 31.5952 14.9453 31.3359C16.2123 35.4988 19.4865 38.7832 23.6366 40.0541L23.6267 40.0218C23.2218 38.6967 22.4391 35.9883 21.8819 33.0963C20.7984 32.8862 19.745 32.6448 18.787 32.4056Z" fill="#A1A3A7"/>
<path d="M39.948 31.3458C38.627 31.7519 35.9268 32.5371 33.0437 33.0961C32.4865 35.988 31.7037 38.6967 31.2989 40.0218L31.2891 40.0541C35.4391 38.7832 38.7132 35.4988 39.9802 31.3359L39.948 31.3458Z" fill="#A1A3A7"/>
<path d="M14.5117 29.1562C14.557 29.1622 14.5939 29.1683 14.6062 29.1711C14.6169 29.1738 14.6337 29.1782 14.6398 29.1799L14.6533 29.1838L14.6606 29.1859L14.6682 29.1883L14.6746 29.1904C14.671 29.1892 14.5983 29.171 14.5117 29.1562Z" fill="#A1A3A7"/>
</svg>
