<svg width="55" height="55" viewBox="0 0 55 55" fill="none" xmlns="http://www.w3.org/2000/svg">
<path fill-rule="evenodd" clip-rule="evenodd" d="M5.4375 5.4375V49.5625H49.5625V5.4375H5.4375ZM4.4375 3.4375C3.88522 3.4375 3.4375 3.88521 3.4375 4.4375V50.5625C3.4375 51.1148 3.88521 51.5625 4.4375 51.5625H50.5625C51.1148 51.5625 51.5625 51.1148 51.5625 50.5625V4.4375C51.5625 3.88522 51.1148 3.4375 50.5625 3.4375H4.4375Z" fill="#A1A3A7"/>
<path d="M15.9212 15.4688L25.2244 28.5933L15.4688 39.5313H17.5482L26.1459 29.8919L32.9785 39.5313H39.5313L29.7961 25.7982L39.0098 15.4688H36.9316L28.8759 24.4996L22.4739 15.4688H15.9212Z" fill="#A1A3A7"/>
</svg>
